<?xml version="1.0" standalone="no"?>
 <!DOCTYPE svg PUBLIC "-//W3C//DTD SVG 1.1//EN" 
 "http://www.w3.org/Graphics/SVG/1.1/DTD/svg11.dtd"> 
<svg
  xmlns:svg="http://www.w3.org/2000/svg"
  xmlns="http://www.w3.org/2000/svg"
  xmlns:xlink="http://www.w3.org/1999/xlink"
  version="1.1"
  width="43.3324mm" height="48.7934mm" viewBox="0.0000 0.0000 43.3324 48.7934">
<title>SVG Image created as working_new-brd.svg date 2023/09/14 12:42:57 </title>
  <desc>Image generated by PCBNEW </desc>
<g style="fill:#000000; fill-opacity:1.0000;stroke:#000000; stroke-opacity:1.0000;
stroke-linecap:round; stroke-linejoin:round;"
 transform="translate(0 0) scale(1 1)">
</g>
<g style="fill:#000000; fill-opacity:0.0; 
stroke:#000000; stroke-width:0.0000; stroke-opacity:1; 
stroke-linecap:round; stroke-linejoin:round;">
<g >
</g>
<g >
</g>
<g >
</g>
<g >
</g>
<g >
</g>
<g >
</g>
<g >
</g>
<g >
</g>
<g >
</g>
<g >
</g>
<g >
</g>
<g >
</g>
<g >
</g>
</g>
<g style="fill:#000000; fill-opacity:0.0; 
stroke:#000000; stroke-width:0.0000; stroke-opacity:1; 
stroke-linecap:round; stroke-linejoin:round;">
<g >
</g>
<g >
</g>
<g >
</g>
<g >
</g>
<g >
</g>
<g >
</g>
<g >
</g>
<g >
</g>
<g >
</g>
<g >
</g>
<g >
</g>
<g >
</g>
<g >
</g>
</g>
<g style="fill:#000000; fill-opacity:0.0; 
stroke:#000000; stroke-width:0.0000; stroke-opacity:1; 
stroke-linecap:round; stroke-linejoin:round;">
<g >
</g>
<g >
</g>
<g >
</g>
<g >
</g>
<g >
</g>
<g >
</g>
<g >
</g>
<g >
</g>
<g >
</g>
<g >
</g>
<g >
</g>
<g >
</g>
<g >
</g>
</g>
<g style="fill:#000000; fill-opacity:0.0; 
stroke:#000000; stroke-width:0.0000; stroke-opacity:1; 
stroke-linecap:round; stroke-linejoin:round;">
<g >
</g>
<g >
</g>
<g >
</g>
<g >
</g>
<g >
</g>
<g >
</g>
<g >
</g>
<g >
</g>
<g >
</g>
<g >
</g>
<g >
</g>
<g >
</g>
<g >
</g>
</g>
<g style="fill:#FFFFFF; fill-opacity:0.0; 
stroke:#FFFFFF; stroke-width:0.0000; stroke-opacity:1; 
stroke-linecap:round; stroke-linejoin:round;">
</g>
<g style="fill:#FFFFFF; fill-opacity:1.0000; 
stroke:#FFFFFF; stroke-width:0.0000; stroke-opacity:1; 
stroke-linecap:round; stroke-linejoin:round;">
<circle cx="14.1750" cy="8.2482" r="1.6000" /> 
</g>
<g style="fill:#FFFFFF; fill-opacity:1.0000; 
stroke:#FFFFFF; stroke-width:0.0212; stroke-opacity:1; 
stroke-linecap:round; stroke-linejoin:round;">
</g>
<g style="fill:#FFFFFF; fill-opacity:1.0000; 
stroke:#FFFFFF; stroke-width:0.0000; stroke-opacity:1; 
stroke-linecap:round; stroke-linejoin:round;">
<circle cx="17.8650" cy="37.9982" r="0.5000" /> 
</g>
<g style="fill:#FFFFFF; fill-opacity:1.0000; 
stroke:#FFFFFF; stroke-width:0.0212; stroke-opacity:1; 
stroke-linecap:round; stroke-linejoin:round;">
</g>
<g style="fill:#FFFFFF; fill-opacity:1.0000; 
stroke:#FFFFFF; stroke-width:0.0000; stroke-opacity:1; 
stroke-linecap:round; stroke-linejoin:round;">
<circle cx="17.8650" cy="40.5382" r="0.5000" /> 
</g>
<g style="fill:#FFFFFF; fill-opacity:1.0000; 
stroke:#FFFFFF; stroke-width:0.0212; stroke-opacity:1; 
stroke-linecap:round; stroke-linejoin:round;">
</g>
<g style="fill:#FFFFFF; fill-opacity:1.0000; 
stroke:#FFFFFF; stroke-width:0.0000; stroke-opacity:1; 
stroke-linecap:round; stroke-linejoin:round;">
<circle cx="17.8650" cy="43.0782" r="0.5000" /> 
</g>
<g style="fill:#FFFFFF; fill-opacity:1.0000; 
stroke:#FFFFFF; stroke-width:0.0212; stroke-opacity:1; 
stroke-linecap:round; stroke-linejoin:round;">
</g>
<g style="fill:#FFFFFF; fill-opacity:1.0000; 
stroke:#FFFFFF; stroke-width:0.0000; stroke-opacity:1; 
stroke-linecap:round; stroke-linejoin:round;">
<circle cx="17.8650" cy="45.6182" r="0.5000" /> 
</g>
<g style="fill:#FFFFFF; fill-opacity:1.0000; 
stroke:#FFFFFF; stroke-width:0.0212; stroke-opacity:1; 
stroke-linecap:round; stroke-linejoin:round;">
</g>
<g style="fill:#FFFFFF; fill-opacity:1.0000; 
stroke:#FFFFFF; stroke-width:0.0000; stroke-opacity:1; 
stroke-linecap:round; stroke-linejoin:round;">
<circle cx="36.6750" cy="38.2482" r="3.2000" /> 
</g>
<g style="fill:#FFFFFF; fill-opacity:1.0000; 
stroke:#FFFFFF; stroke-width:0.0212; stroke-opacity:1; 
stroke-linecap:round; stroke-linejoin:round;">
</g>
<g style="fill:#FFFFFF; fill-opacity:1.0000; 
stroke:#FFFFFF; stroke-width:0.0000; stroke-opacity:1; 
stroke-linecap:round; stroke-linejoin:round;">
<circle cx="21.6750" cy="8.2482" r="3.2000" /> 
</g>
<g style="fill:#FFFFFF; fill-opacity:1.0000; 
stroke:#FFFFFF; stroke-width:0.0212; stroke-opacity:1; 
stroke-linecap:round; stroke-linejoin:round;">
</g>
<g style="fill:#FFFFFF; fill-opacity:1.0000; 
stroke:#FFFFFF; stroke-width:0.0000; stroke-opacity:1; 
stroke-linecap:round; stroke-linejoin:round;">
<circle cx="36.6750" cy="8.2482" r="3.2000" /> 
</g>
<g style="fill:#FFFFFF; fill-opacity:1.0000; 
stroke:#FFFFFF; stroke-width:0.0212; stroke-opacity:1; 
stroke-linecap:round; stroke-linejoin:round;">
</g>
<g style="fill:#FFFFFF; fill-opacity:1.0000; 
stroke:#FFFFFF; stroke-width:0.0000; stroke-opacity:1; 
stroke-linecap:round; stroke-linejoin:round;">
<circle cx="29.1750" cy="38.2482" r="1.6000" /> 
</g>
<g style="fill:#FFFFFF; fill-opacity:1.0000; 
stroke:#FFFFFF; stroke-width:0.0212; stroke-opacity:1; 
stroke-linecap:round; stroke-linejoin:round;">
</g>
<g style="fill:#FFFFFF; fill-opacity:1.0000; 
stroke:#FFFFFF; stroke-width:0.0000; stroke-opacity:1; 
stroke-linecap:round; stroke-linejoin:round;">
<circle cx="6.6750" cy="8.2482" r="3.2000" /> 
</g>
<g style="fill:#FFFFFF; fill-opacity:1.0000; 
stroke:#FFFFFF; stroke-width:0.0212; stroke-opacity:1; 
stroke-linecap:round; stroke-linejoin:round;">
</g>
<g style="fill:#FFFFFF; fill-opacity:1.0000; 
stroke:#FFFFFF; stroke-width:0.0000; stroke-opacity:1; 
stroke-linecap:round; stroke-linejoin:round;">
<circle cx="14.1750" cy="38.2482" r="1.6000" /> 
</g>
<g style="fill:#FFFFFF; fill-opacity:1.0000; 
stroke:#FFFFFF; stroke-width:0.0212; stroke-opacity:1; 
stroke-linecap:round; stroke-linejoin:round;">
</g>
<g style="fill:#FFFFFF; fill-opacity:1.0000; 
stroke:#FFFFFF; stroke-width:0.0000; stroke-opacity:1; 
stroke-linecap:round; stroke-linejoin:round;">
<circle cx="29.1750" cy="8.2482" r="1.6000" /> 
</g>
<g style="fill:#FFFFFF; fill-opacity:1.0000; 
stroke:#FFFFFF; stroke-width:0.0212; stroke-opacity:1; 
stroke-linecap:round; stroke-linejoin:round;">
</g>
<g style="fill:#FFFFFF; fill-opacity:1.0000; 
stroke:#FFFFFF; stroke-width:0.0000; stroke-opacity:1; 
stroke-linecap:round; stroke-linejoin:round;">
<circle cx="6.6750" cy="38.2482" r="3.2000" /> 
</g>
<g style="fill:#FFFFFF; fill-opacity:1.0000; 
stroke:#FFFFFF; stroke-width:0.0212; stroke-opacity:1; 
stroke-linecap:round; stroke-linejoin:round;">
</g>
<g style="fill:#000000; fill-opacity:1.0000; 
stroke:#000000; stroke-width:0.0212; stroke-opacity:1; 
stroke-linecap:round; stroke-linejoin:round;">
<g >
</g>
<g >
</g>
<g >
</g>
<g >
</g>
<g >
</g>
<g >
</g>
<g >
</g>
<g >
</g>
<g >
</g>
<g >
</g>
<g >
</g>
<g >
</g>
<g >
</g>
</g>
<g style="fill:#000000; fill-opacity:1.0000; 
stroke:#000000; stroke-width:0.0212; stroke-opacity:1; 
stroke-linecap:round; stroke-linejoin:round;">
<g >
</g>
<g style="fill:#02FFEE; fill-opacity:0.4000; 
stroke:#02FFEE; stroke-width:0.0212; stroke-opacity:1; 
stroke-linecap:round; stroke-linejoin:round;">
</g>
<g style="fill:#02FFEE; fill-opacity:0.4000; 
stroke:#02FFEE; stroke-width:0.0000; stroke-opacity:1; 
stroke-linecap:round; stroke-linejoin:round;">
<circle cx="14.1750" cy="8.2482" r="1.6000" /> 
</g>
<g style="fill:#02FFEE; fill-opacity:0.4000; 
stroke:#02FFEE; stroke-width:0.0212; stroke-opacity:1; 
stroke-linecap:round; stroke-linejoin:round;">
</g>
<g >
</g>
<g style="fill:#02FFEE; fill-opacity:0.4000; 
stroke:#02FFEE; stroke-width:0.0212; stroke-opacity:1; 
stroke-linecap:round; stroke-linejoin:round;">
</g>
<g style="fill:#02FFEE; fill-opacity:0.4000; 
stroke:#02FFEE; stroke-width:0.0000; stroke-opacity:1; 
stroke-linecap:round; stroke-linejoin:round;">
<path style="fill:#02FFEE; fill-opacity:0.4000; 
stroke:#02FFEE; stroke-width:0.0000; stroke-opacity:1; 
stroke-linecap:round; stroke-linejoin:round;fill-rule:evenodd;"
d="M 17.0150,38.8483
17.0150,37.1482
18.7150,37.1482
18.7150,38.8483
Z" /> 
<circle cx="17.8650" cy="40.5382" r="0.8500" /> 
<circle cx="17.8650" cy="43.0782" r="0.8500" /> 
<circle cx="17.8650" cy="45.6182" r="0.8500" /> 
</g>
<g >
</g>
<g style="fill:#02FFEE; fill-opacity:0.4000; 
stroke:#02FFEE; stroke-width:0.0000; stroke-opacity:1; 
stroke-linecap:round; stroke-linejoin:round;">
<circle cx="36.6750" cy="38.2482" r="3.2000" /> 
</g>
<g style="fill:#02FFEE; fill-opacity:0.4000; 
stroke:#02FFEE; stroke-width:0.0212; stroke-opacity:1; 
stroke-linecap:round; stroke-linejoin:round;">
</g>
<g >
</g>
<g style="fill:#02FFEE; fill-opacity:0.4000; 
stroke:#02FFEE; stroke-width:0.0212; stroke-opacity:1; 
stroke-linecap:round; stroke-linejoin:round;">
</g>
<g style="fill:#02FFEE; fill-opacity:0.4000; 
stroke:#02FFEE; stroke-width:0.0000; stroke-opacity:1; 
stroke-linecap:round; stroke-linejoin:round;">
<circle cx="21.6750" cy="8.2482" r="3.2000" /> 
</g>
<g style="fill:#02FFEE; fill-opacity:0.4000; 
stroke:#02FFEE; stroke-width:0.0212; stroke-opacity:1; 
stroke-linecap:round; stroke-linejoin:round;">
</g>
<g >
</g>
<g style="fill:#02FFEE; fill-opacity:0.4000; 
stroke:#02FFEE; stroke-width:0.0212; stroke-opacity:1; 
stroke-linecap:round; stroke-linejoin:round;">
</g>
<g style="fill:#02FFEE; fill-opacity:0.4000; 
stroke:#02FFEE; stroke-width:0.0000; stroke-opacity:1; 
stroke-linecap:round; stroke-linejoin:round;">
<circle cx="36.6750" cy="8.2482" r="3.2000" /> 
</g>
<g style="fill:#02FFEE; fill-opacity:0.4000; 
stroke:#02FFEE; stroke-width:0.0212; stroke-opacity:1; 
stroke-linecap:round; stroke-linejoin:round;">
</g>
<g >
</g>
<g style="fill:#02FFEE; fill-opacity:0.4000; 
stroke:#02FFEE; stroke-width:0.0212; stroke-opacity:1; 
stroke-linecap:round; stroke-linejoin:round;">
</g>
<g style="fill:#02FFEE; fill-opacity:0.4000; 
stroke:#02FFEE; stroke-width:0.0000; stroke-opacity:1; 
stroke-linecap:round; stroke-linejoin:round;">
<circle cx="29.1750" cy="38.2482" r="1.6000" /> 
</g>
<g style="fill:#02FFEE; fill-opacity:0.4000; 
stroke:#02FFEE; stroke-width:0.0212; stroke-opacity:1; 
stroke-linecap:round; stroke-linejoin:round;">
</g>
<g >
</g>
<g style="fill:#02FFEE; fill-opacity:0.4000; 
stroke:#02FFEE; stroke-width:0.0212; stroke-opacity:1; 
stroke-linecap:round; stroke-linejoin:round;">
</g>
<g style="fill:#02FFEE; fill-opacity:0.4000; 
stroke:#02FFEE; stroke-width:0.0000; stroke-opacity:1; 
stroke-linecap:round; stroke-linejoin:round;">
<circle cx="6.6750" cy="8.2482" r="3.2000" /> 
</g>
<g style="fill:#02FFEE; fill-opacity:0.4000; 
stroke:#02FFEE; stroke-width:0.0212; stroke-opacity:1; 
stroke-linecap:round; stroke-linejoin:round;">
</g>
<g >
</g>
<g style="fill:#02FFEE; fill-opacity:0.4000; 
stroke:#02FFEE; stroke-width:0.0212; stroke-opacity:1; 
stroke-linecap:round; stroke-linejoin:round;">
</g>
<g style="fill:#02FFEE; fill-opacity:0.4000; 
stroke:#02FFEE; stroke-width:0.0000; stroke-opacity:1; 
stroke-linecap:round; stroke-linejoin:round;">
<circle cx="14.1750" cy="38.2482" r="1.6000" /> 
</g>
<g style="fill:#02FFEE; fill-opacity:0.4000; 
stroke:#02FFEE; stroke-width:0.0212; stroke-opacity:1; 
stroke-linecap:round; stroke-linejoin:round;">
</g>
<g >
</g>
<g style="fill:#02FFEE; fill-opacity:0.4000; 
stroke:#02FFEE; stroke-width:0.0212; stroke-opacity:1; 
stroke-linecap:round; stroke-linejoin:round;">
</g>
<g style="fill:#02FFEE; fill-opacity:0.4000; 
stroke:#02FFEE; stroke-width:0.0000; stroke-opacity:1; 
stroke-linecap:round; stroke-linejoin:round;">
<circle cx="29.1750" cy="8.2482" r="1.6000" /> 
</g>
<g style="fill:#02FFEE; fill-opacity:0.4000; 
stroke:#02FFEE; stroke-width:0.0212; stroke-opacity:1; 
stroke-linecap:round; stroke-linejoin:round;">
</g>
<g >
</g>
<g style="fill:#02FFEE; fill-opacity:0.4000; 
stroke:#02FFEE; stroke-width:0.0212; stroke-opacity:1; 
stroke-linecap:round; stroke-linejoin:round;">
</g>
<g style="fill:#02FFEE; fill-opacity:0.4000; 
stroke:#02FFEE; stroke-width:0.0000; stroke-opacity:1; 
stroke-linecap:round; stroke-linejoin:round;">
<circle cx="6.6750" cy="38.2482" r="3.2000" /> 
</g>
<g style="fill:#02FFEE; fill-opacity:0.4000; 
stroke:#02FFEE; stroke-width:0.0212; stroke-opacity:1; 
stroke-linecap:round; stroke-linejoin:round;">
</g>
<g >
</g>
<g >
</g>
<g >
</g>
</g>
<g style="fill:#000000; fill-opacity:1.0000; 
stroke:#000000; stroke-width:0.0212; stroke-opacity:1; 
stroke-linecap:round; stroke-linejoin:round;">
<g >
</g>
<g >
</g>
<g style="fill:#4D7FC4; fill-opacity:1.0000; 
stroke:#4D7FC4; stroke-width:0.0212; stroke-opacity:1; 
stroke-linecap:round; stroke-linejoin:round;">
</g>
<g style="fill:#4D7FC4; fill-opacity:1.0000; 
stroke:#4D7FC4; stroke-width:0.0000; stroke-opacity:1; 
stroke-linecap:round; stroke-linejoin:round;">
<path style="fill:#4D7FC4; fill-opacity:1.0000; 
stroke:#4D7FC4; stroke-width:0.0000; stroke-opacity:1; 
stroke-linecap:round; stroke-linejoin:round;fill-rule:evenodd;"
d="M 17.0150,38.8483
17.0150,37.1482
18.7150,37.1482
18.7150,38.8483
Z" /> 
<circle cx="17.8650" cy="40.5382" r="0.8500" /> 
<circle cx="17.8650" cy="43.0782" r="0.8500" /> 
<circle cx="17.8650" cy="45.6182" r="0.8500" /> 
</g>
<g >
</g>
<g >
</g>
<g >
</g>
<g >
</g>
<g >
</g>
<g >
</g>
<g >
</g>
<g >
</g>
<g >
</g>
<g >
</g>
<g >
</g>
</g>
<g style="fill:#FFFFFF; fill-opacity:1.0000; 
stroke:#FFFFFF; stroke-width:0.0000; stroke-opacity:1; 
stroke-linecap:round; stroke-linejoin:round;">
<circle cx="14.1750" cy="8.2482" r="1.6000" /> 
</g>
<g style="fill:#FFFFFF; fill-opacity:1.0000; 
stroke:#FFFFFF; stroke-width:0.0212; stroke-opacity:1; 
stroke-linecap:round; stroke-linejoin:round;">
</g>
<g style="fill:#FFFFFF; fill-opacity:1.0000; 
stroke:#FFFFFF; stroke-width:0.0000; stroke-opacity:1; 
stroke-linecap:round; stroke-linejoin:round;">
<circle cx="17.8650" cy="37.9982" r="0.5000" /> 
</g>
<g style="fill:#FFFFFF; fill-opacity:1.0000; 
stroke:#FFFFFF; stroke-width:0.0212; stroke-opacity:1; 
stroke-linecap:round; stroke-linejoin:round;">
</g>
<g style="fill:#FFFFFF; fill-opacity:1.0000; 
stroke:#FFFFFF; stroke-width:0.0000; stroke-opacity:1; 
stroke-linecap:round; stroke-linejoin:round;">
<circle cx="17.8650" cy="40.5382" r="0.5000" /> 
</g>
<g style="fill:#FFFFFF; fill-opacity:1.0000; 
stroke:#FFFFFF; stroke-width:0.0212; stroke-opacity:1; 
stroke-linecap:round; stroke-linejoin:round;">
</g>
<g style="fill:#FFFFFF; fill-opacity:1.0000; 
stroke:#FFFFFF; stroke-width:0.0000; stroke-opacity:1; 
stroke-linecap:round; stroke-linejoin:round;">
<circle cx="17.8650" cy="43.0782" r="0.5000" /> 
</g>
<g style="fill:#FFFFFF; fill-opacity:1.0000; 
stroke:#FFFFFF; stroke-width:0.0212; stroke-opacity:1; 
stroke-linecap:round; stroke-linejoin:round;">
</g>
<g style="fill:#FFFFFF; fill-opacity:1.0000; 
stroke:#FFFFFF; stroke-width:0.0000; stroke-opacity:1; 
stroke-linecap:round; stroke-linejoin:round;">
<circle cx="17.8650" cy="45.6182" r="0.5000" /> 
</g>
<g style="fill:#FFFFFF; fill-opacity:1.0000; 
stroke:#FFFFFF; stroke-width:0.0212; stroke-opacity:1; 
stroke-linecap:round; stroke-linejoin:round;">
</g>
<g style="fill:#FFFFFF; fill-opacity:1.0000; 
stroke:#FFFFFF; stroke-width:0.0000; stroke-opacity:1; 
stroke-linecap:round; stroke-linejoin:round;">
<circle cx="36.6750" cy="38.2482" r="3.2000" /> 
</g>
<g style="fill:#FFFFFF; fill-opacity:1.0000; 
stroke:#FFFFFF; stroke-width:0.0212; stroke-opacity:1; 
stroke-linecap:round; stroke-linejoin:round;">
</g>
<g style="fill:#FFFFFF; fill-opacity:1.0000; 
stroke:#FFFFFF; stroke-width:0.0000; stroke-opacity:1; 
stroke-linecap:round; stroke-linejoin:round;">
<circle cx="21.6750" cy="8.2482" r="3.2000" /> 
</g>
<g style="fill:#FFFFFF; fill-opacity:1.0000; 
stroke:#FFFFFF; stroke-width:0.0212; stroke-opacity:1; 
stroke-linecap:round; stroke-linejoin:round;">
</g>
<g style="fill:#FFFFFF; fill-opacity:1.0000; 
stroke:#FFFFFF; stroke-width:0.0000; stroke-opacity:1; 
stroke-linecap:round; stroke-linejoin:round;">
<circle cx="36.6750" cy="8.2482" r="3.2000" /> 
</g>
<g style="fill:#FFFFFF; fill-opacity:1.0000; 
stroke:#FFFFFF; stroke-width:0.0212; stroke-opacity:1; 
stroke-linecap:round; stroke-linejoin:round;">
</g>
<g style="fill:#FFFFFF; fill-opacity:1.0000; 
stroke:#FFFFFF; stroke-width:0.0000; stroke-opacity:1; 
stroke-linecap:round; stroke-linejoin:round;">
<circle cx="29.1750" cy="38.2482" r="1.6000" /> 
</g>
<g style="fill:#FFFFFF; fill-opacity:1.0000; 
stroke:#FFFFFF; stroke-width:0.0212; stroke-opacity:1; 
stroke-linecap:round; stroke-linejoin:round;">
</g>
<g style="fill:#FFFFFF; fill-opacity:1.0000; 
stroke:#FFFFFF; stroke-width:0.0000; stroke-opacity:1; 
stroke-linecap:round; stroke-linejoin:round;">
<circle cx="6.6750" cy="8.2482" r="3.2000" /> 
</g>
<g style="fill:#FFFFFF; fill-opacity:1.0000; 
stroke:#FFFFFF; stroke-width:0.0212; stroke-opacity:1; 
stroke-linecap:round; stroke-linejoin:round;">
</g>
<g style="fill:#FFFFFF; fill-opacity:1.0000; 
stroke:#FFFFFF; stroke-width:0.0000; stroke-opacity:1; 
stroke-linecap:round; stroke-linejoin:round;">
<circle cx="14.1750" cy="38.2482" r="1.6000" /> 
</g>
<g style="fill:#FFFFFF; fill-opacity:1.0000; 
stroke:#FFFFFF; stroke-width:0.0212; stroke-opacity:1; 
stroke-linecap:round; stroke-linejoin:round;">
</g>
<g style="fill:#FFFFFF; fill-opacity:1.0000; 
stroke:#FFFFFF; stroke-width:0.0000; stroke-opacity:1; 
stroke-linecap:round; stroke-linejoin:round;">
<circle cx="29.1750" cy="8.2482" r="1.6000" /> 
</g>
<g style="fill:#FFFFFF; fill-opacity:1.0000; 
stroke:#FFFFFF; stroke-width:0.0212; stroke-opacity:1; 
stroke-linecap:round; stroke-linejoin:round;">
</g>
<g style="fill:#FFFFFF; fill-opacity:1.0000; 
stroke:#FFFFFF; stroke-width:0.0000; stroke-opacity:1; 
stroke-linecap:round; stroke-linejoin:round;">
<circle cx="6.6750" cy="38.2482" r="3.2000" /> 
</g>
<g style="fill:#FFFFFF; fill-opacity:1.0000; 
stroke:#FFFFFF; stroke-width:0.0212; stroke-opacity:1; 
stroke-linecap:round; stroke-linejoin:round;">
</g>
<g style="fill:#000000; fill-opacity:1.0000; 
stroke:#000000; stroke-width:0.0212; stroke-opacity:1; 
stroke-linecap:round; stroke-linejoin:round;">
<g >
</g>
<g >
</g>
<g style="fill:#C83434; fill-opacity:1.0000; 
stroke:#C83434; stroke-width:0.0212; stroke-opacity:1; 
stroke-linecap:round; stroke-linejoin:round;">
</g>
<g style="fill:#C83434; fill-opacity:1.0000; 
stroke:#C83434; stroke-width:0.0000; stroke-opacity:1; 
stroke-linecap:round; stroke-linejoin:round;">
<path style="fill:#C83434; fill-opacity:1.0000; 
stroke:#C83434; stroke-width:0.0000; stroke-opacity:1; 
stroke-linecap:round; stroke-linejoin:round;fill-rule:evenodd;"
d="M 17.0150,38.8483
17.0150,37.1482
18.7150,37.1482
18.7150,38.8483
Z" /> 
<circle cx="17.8650" cy="40.5382" r="0.8500" /> 
<circle cx="17.8650" cy="43.0782" r="0.8500" /> 
<circle cx="17.8650" cy="45.6182" r="0.8500" /> 
</g>
<g >
</g>
<g >
</g>
<g >
</g>
<g >
</g>
<g >
</g>
<g >
</g>
<g >
</g>
<g >
</g>
<g >
</g>
<g >
</g>
<g >
</g>
</g>
<g style="fill:#FFFFFF; fill-opacity:1.0000; 
stroke:#FFFFFF; stroke-width:0.0000; stroke-opacity:1; 
stroke-linecap:round; stroke-linejoin:round;">
<circle cx="14.1750" cy="8.2482" r="1.6000" /> 
</g>
<g style="fill:#FFFFFF; fill-opacity:1.0000; 
stroke:#FFFFFF; stroke-width:0.0212; stroke-opacity:1; 
stroke-linecap:round; stroke-linejoin:round;">
</g>
<g style="fill:#FFFFFF; fill-opacity:1.0000; 
stroke:#FFFFFF; stroke-width:0.0000; stroke-opacity:1; 
stroke-linecap:round; stroke-linejoin:round;">
<circle cx="17.8650" cy="37.9982" r="0.5000" /> 
</g>
<g style="fill:#FFFFFF; fill-opacity:1.0000; 
stroke:#FFFFFF; stroke-width:0.0212; stroke-opacity:1; 
stroke-linecap:round; stroke-linejoin:round;">
</g>
<g style="fill:#FFFFFF; fill-opacity:1.0000; 
stroke:#FFFFFF; stroke-width:0.0000; stroke-opacity:1; 
stroke-linecap:round; stroke-linejoin:round;">
<circle cx="17.8650" cy="40.5382" r="0.5000" /> 
</g>
<g style="fill:#FFFFFF; fill-opacity:1.0000; 
stroke:#FFFFFF; stroke-width:0.0212; stroke-opacity:1; 
stroke-linecap:round; stroke-linejoin:round;">
</g>
<g style="fill:#FFFFFF; fill-opacity:1.0000; 
stroke:#FFFFFF; stroke-width:0.0000; stroke-opacity:1; 
stroke-linecap:round; stroke-linejoin:round;">
<circle cx="17.8650" cy="43.0782" r="0.5000" /> 
</g>
<g style="fill:#FFFFFF; fill-opacity:1.0000; 
stroke:#FFFFFF; stroke-width:0.0212; stroke-opacity:1; 
stroke-linecap:round; stroke-linejoin:round;">
</g>
<g style="fill:#FFFFFF; fill-opacity:1.0000; 
stroke:#FFFFFF; stroke-width:0.0000; stroke-opacity:1; 
stroke-linecap:round; stroke-linejoin:round;">
<circle cx="17.8650" cy="45.6182" r="0.5000" /> 
</g>
<g style="fill:#FFFFFF; fill-opacity:1.0000; 
stroke:#FFFFFF; stroke-width:0.0212; stroke-opacity:1; 
stroke-linecap:round; stroke-linejoin:round;">
</g>
<g style="fill:#FFFFFF; fill-opacity:1.0000; 
stroke:#FFFFFF; stroke-width:0.0000; stroke-opacity:1; 
stroke-linecap:round; stroke-linejoin:round;">
<circle cx="36.6750" cy="38.2482" r="3.2000" /> 
</g>
<g style="fill:#FFFFFF; fill-opacity:1.0000; 
stroke:#FFFFFF; stroke-width:0.0212; stroke-opacity:1; 
stroke-linecap:round; stroke-linejoin:round;">
</g>
<g style="fill:#FFFFFF; fill-opacity:1.0000; 
stroke:#FFFFFF; stroke-width:0.0000; stroke-opacity:1; 
stroke-linecap:round; stroke-linejoin:round;">
<circle cx="21.6750" cy="8.2482" r="3.2000" /> 
</g>
<g style="fill:#FFFFFF; fill-opacity:1.0000; 
stroke:#FFFFFF; stroke-width:0.0212; stroke-opacity:1; 
stroke-linecap:round; stroke-linejoin:round;">
</g>
<g style="fill:#FFFFFF; fill-opacity:1.0000; 
stroke:#FFFFFF; stroke-width:0.0000; stroke-opacity:1; 
stroke-linecap:round; stroke-linejoin:round;">
<circle cx="36.6750" cy="8.2482" r="3.2000" /> 
</g>
<g style="fill:#FFFFFF; fill-opacity:1.0000; 
stroke:#FFFFFF; stroke-width:0.0212; stroke-opacity:1; 
stroke-linecap:round; stroke-linejoin:round;">
</g>
<g style="fill:#FFFFFF; fill-opacity:1.0000; 
stroke:#FFFFFF; stroke-width:0.0000; stroke-opacity:1; 
stroke-linecap:round; stroke-linejoin:round;">
<circle cx="29.1750" cy="38.2482" r="1.6000" /> 
</g>
<g style="fill:#FFFFFF; fill-opacity:1.0000; 
stroke:#FFFFFF; stroke-width:0.0212; stroke-opacity:1; 
stroke-linecap:round; stroke-linejoin:round;">
</g>
<g style="fill:#FFFFFF; fill-opacity:1.0000; 
stroke:#FFFFFF; stroke-width:0.0000; stroke-opacity:1; 
stroke-linecap:round; stroke-linejoin:round;">
<circle cx="6.6750" cy="8.2482" r="3.2000" /> 
</g>
<g style="fill:#FFFFFF; fill-opacity:1.0000; 
stroke:#FFFFFF; stroke-width:0.0212; stroke-opacity:1; 
stroke-linecap:round; stroke-linejoin:round;">
</g>
<g style="fill:#FFFFFF; fill-opacity:1.0000; 
stroke:#FFFFFF; stroke-width:0.0000; stroke-opacity:1; 
stroke-linecap:round; stroke-linejoin:round;">
<circle cx="14.1750" cy="38.2482" r="1.6000" /> 
</g>
<g style="fill:#FFFFFF; fill-opacity:1.0000; 
stroke:#FFFFFF; stroke-width:0.0212; stroke-opacity:1; 
stroke-linecap:round; stroke-linejoin:round;">
</g>
<g style="fill:#FFFFFF; fill-opacity:1.0000; 
stroke:#FFFFFF; stroke-width:0.0000; stroke-opacity:1; 
stroke-linecap:round; stroke-linejoin:round;">
<circle cx="29.1750" cy="8.2482" r="1.6000" /> 
</g>
<g style="fill:#FFFFFF; fill-opacity:1.0000; 
stroke:#FFFFFF; stroke-width:0.0212; stroke-opacity:1; 
stroke-linecap:round; stroke-linejoin:round;">
</g>
<g style="fill:#FFFFFF; fill-opacity:1.0000; 
stroke:#FFFFFF; stroke-width:0.0000; stroke-opacity:1; 
stroke-linecap:round; stroke-linejoin:round;">
<circle cx="6.6750" cy="38.2482" r="3.2000" /> 
</g>
<g style="fill:#FFFFFF; fill-opacity:1.0000; 
stroke:#FFFFFF; stroke-width:0.0212; stroke-opacity:1; 
stroke-linecap:round; stroke-linejoin:round;">
</g>
<g style="fill:#000000; fill-opacity:1.0000; 
stroke:#000000; stroke-width:0.0212; stroke-opacity:1; 
stroke-linecap:round; stroke-linejoin:round;">
<g >
</g>
<g style="fill:#D864FF; fill-opacity:0.4000; 
stroke:#D864FF; stroke-width:0.0212; stroke-opacity:1; 
stroke-linecap:round; stroke-linejoin:round;">
</g>
<g style="fill:#D864FF; fill-opacity:0.4000; 
stroke:#D864FF; stroke-width:0.0000; stroke-opacity:1; 
stroke-linecap:round; stroke-linejoin:round;">
<circle cx="14.1750" cy="8.2482" r="1.6000" /> 
</g>
<g style="fill:#D864FF; fill-opacity:0.4000; 
stroke:#D864FF; stroke-width:0.0212; stroke-opacity:1; 
stroke-linecap:round; stroke-linejoin:round;">
</g>
<g >
</g>
<g style="fill:#D864FF; fill-opacity:0.4000; 
stroke:#D864FF; stroke-width:0.0212; stroke-opacity:1; 
stroke-linecap:round; stroke-linejoin:round;">
</g>
<g style="fill:#D864FF; fill-opacity:0.4000; 
stroke:#D864FF; stroke-width:0.0000; stroke-opacity:1; 
stroke-linecap:round; stroke-linejoin:round;">
<path style="fill:#D864FF; fill-opacity:0.4000; 
stroke:#D864FF; stroke-width:0.0000; stroke-opacity:1; 
stroke-linecap:round; stroke-linejoin:round;fill-rule:evenodd;"
d="M 17.0150,38.8483
17.0150,37.1482
18.7150,37.1482
18.7150,38.8483
Z" /> 
<circle cx="17.8650" cy="40.5382" r="0.8500" /> 
<circle cx="17.8650" cy="43.0782" r="0.8500" /> 
<circle cx="17.8650" cy="45.6182" r="0.8500" /> 
</g>
<g >
</g>
<g style="fill:#D864FF; fill-opacity:0.4000; 
stroke:#D864FF; stroke-width:0.0000; stroke-opacity:1; 
stroke-linecap:round; stroke-linejoin:round;">
<circle cx="36.6750" cy="38.2482" r="3.2000" /> 
</g>
<g style="fill:#D864FF; fill-opacity:0.4000; 
stroke:#D864FF; stroke-width:0.0212; stroke-opacity:1; 
stroke-linecap:round; stroke-linejoin:round;">
</g>
<g >
</g>
<g style="fill:#D864FF; fill-opacity:0.4000; 
stroke:#D864FF; stroke-width:0.0212; stroke-opacity:1; 
stroke-linecap:round; stroke-linejoin:round;">
</g>
<g style="fill:#D864FF; fill-opacity:0.4000; 
stroke:#D864FF; stroke-width:0.0000; stroke-opacity:1; 
stroke-linecap:round; stroke-linejoin:round;">
<circle cx="21.6750" cy="8.2482" r="3.2000" /> 
</g>
<g style="fill:#D864FF; fill-opacity:0.4000; 
stroke:#D864FF; stroke-width:0.0212; stroke-opacity:1; 
stroke-linecap:round; stroke-linejoin:round;">
</g>
<g >
</g>
<g style="fill:#D864FF; fill-opacity:0.4000; 
stroke:#D864FF; stroke-width:0.0212; stroke-opacity:1; 
stroke-linecap:round; stroke-linejoin:round;">
</g>
<g style="fill:#D864FF; fill-opacity:0.4000; 
stroke:#D864FF; stroke-width:0.0000; stroke-opacity:1; 
stroke-linecap:round; stroke-linejoin:round;">
<circle cx="36.6750" cy="8.2482" r="3.2000" /> 
</g>
<g style="fill:#D864FF; fill-opacity:0.4000; 
stroke:#D864FF; stroke-width:0.0212; stroke-opacity:1; 
stroke-linecap:round; stroke-linejoin:round;">
</g>
<g >
</g>
<g style="fill:#D864FF; fill-opacity:0.4000; 
stroke:#D864FF; stroke-width:0.0212; stroke-opacity:1; 
stroke-linecap:round; stroke-linejoin:round;">
</g>
<g style="fill:#D864FF; fill-opacity:0.4000; 
stroke:#D864FF; stroke-width:0.0000; stroke-opacity:1; 
stroke-linecap:round; stroke-linejoin:round;">
<circle cx="29.1750" cy="38.2482" r="1.6000" /> 
</g>
<g style="fill:#D864FF; fill-opacity:0.4000; 
stroke:#D864FF; stroke-width:0.0212; stroke-opacity:1; 
stroke-linecap:round; stroke-linejoin:round;">
</g>
<g >
</g>
<g style="fill:#D864FF; fill-opacity:0.4000; 
stroke:#D864FF; stroke-width:0.0212; stroke-opacity:1; 
stroke-linecap:round; stroke-linejoin:round;">
</g>
<g style="fill:#D864FF; fill-opacity:0.4000; 
stroke:#D864FF; stroke-width:0.0000; stroke-opacity:1; 
stroke-linecap:round; stroke-linejoin:round;">
<circle cx="6.6750" cy="8.2482" r="3.2000" /> 
</g>
<g style="fill:#D864FF; fill-opacity:0.4000; 
stroke:#D864FF; stroke-width:0.0212; stroke-opacity:1; 
stroke-linecap:round; stroke-linejoin:round;">
</g>
<g >
</g>
<g style="fill:#D864FF; fill-opacity:0.4000; 
stroke:#D864FF; stroke-width:0.0212; stroke-opacity:1; 
stroke-linecap:round; stroke-linejoin:round;">
</g>
<g style="fill:#D864FF; fill-opacity:0.4000; 
stroke:#D864FF; stroke-width:0.0000; stroke-opacity:1; 
stroke-linecap:round; stroke-linejoin:round;">
<circle cx="14.1750" cy="38.2482" r="1.6000" /> 
</g>
<g style="fill:#D864FF; fill-opacity:0.4000; 
stroke:#D864FF; stroke-width:0.0212; stroke-opacity:1; 
stroke-linecap:round; stroke-linejoin:round;">
</g>
<g >
</g>
<g style="fill:#D864FF; fill-opacity:0.4000; 
stroke:#D864FF; stroke-width:0.0212; stroke-opacity:1; 
stroke-linecap:round; stroke-linejoin:round;">
</g>
<g style="fill:#D864FF; fill-opacity:0.4000; 
stroke:#D864FF; stroke-width:0.0000; stroke-opacity:1; 
stroke-linecap:round; stroke-linejoin:round;">
<circle cx="29.1750" cy="8.2482" r="1.6000" /> 
</g>
<g style="fill:#D864FF; fill-opacity:0.4000; 
stroke:#D864FF; stroke-width:0.0212; stroke-opacity:1; 
stroke-linecap:round; stroke-linejoin:round;">
</g>
<g >
</g>
<g style="fill:#D864FF; fill-opacity:0.4000; 
stroke:#D864FF; stroke-width:0.0212; stroke-opacity:1; 
stroke-linecap:round; stroke-linejoin:round;">
</g>
<g style="fill:#D864FF; fill-opacity:0.4000; 
stroke:#D864FF; stroke-width:0.0000; stroke-opacity:1; 
stroke-linecap:round; stroke-linejoin:round;">
<circle cx="6.6750" cy="38.2482" r="3.2000" /> 
</g>
<g style="fill:#D864FF; fill-opacity:0.4000; 
stroke:#D864FF; stroke-width:0.0212; stroke-opacity:1; 
stroke-linecap:round; stroke-linejoin:round;">
</g>
<g >
</g>
<g >
</g>
<g >
</g>
</g>
<g style="fill:#000000; fill-opacity:1.0000; 
stroke:#000000; stroke-width:0.0212; stroke-opacity:1; 
stroke-linecap:round; stroke-linejoin:round;">
<g >
</g>
<g >
</g>
<g >
</g>
<g >
</g>
<g >
</g>
<g >
</g>
<g >
</g>
<g >
</g>
<g >
</g>
<g >
</g>
<g >
</g>
<g >
</g>
<g >
</g>
</g>
<g style="fill:#000000; fill-opacity:1.0000; 
stroke:#000000; stroke-width:0.0212; stroke-opacity:1; 
stroke-linecap:round; stroke-linejoin:round;">
</g>
<g style="fill:#F2EDA1; fill-opacity:1.0000; 
stroke:#F2EDA1; stroke-width:0.0212; stroke-opacity:1; 
stroke-linecap:round; stroke-linejoin:round;">
</g>
<g style="fill:#F2EDA1; fill-opacity:1.0000; 
stroke:#F2EDA1; stroke-width:0.1500; stroke-opacity:1; 
stroke-linecap:round; stroke-linejoin:round;">
</g>
<g style="fill:#F2EDA1; fill-opacity:0.0; 
stroke:#F2EDA1; stroke-width:0.1500; stroke-opacity:1; 
stroke-linecap:round; stroke-linejoin:round;">
<text x="14.1750" y="4.5482"
textLength="2.2500" font-size="1.3333" lengthAdjust="spacingAndGlyphs"
text-anchor="middle" opacity="0">H2</text>
<g class="stroked-text"><desc>H2</desc>
<path d="M13.4131 4.5031
L13.4131 3.5031
" />
<path d="M13.4131 3.9793
L13.9845 3.9793
" />
<path d="M13.9845 4.5031
L13.9845 3.5031
" />
<path d="M14.4131 3.5983
L14.4607 3.5507
" />
<path d="M14.4607 3.5507
L14.5560 3.5031
" />
<path d="M14.5560 3.5031
L14.7940 3.5031
" />
<path d="M14.7940 3.5031
L14.8893 3.5507
" />
<path d="M14.8893 3.5507
L14.9369 3.5983
" />
<path d="M14.9369 3.5983
L14.9845 3.6935
" />
<path d="M14.9845 3.6935
L14.9845 3.7888
" />
<path d="M14.9845 3.7888
L14.9369 3.9316
" />
<path d="M14.9369 3.9316
L14.3655 4.5031
" />
<path d="M14.3655 4.5031
L14.9845 4.5031
" />
</g><text x="17.8650" y="36.1683"
textLength="1.9643" font-size="1.3333" lengthAdjust="spacingAndGlyphs"
text-anchor="middle" opacity="0">J1</text>
<g class="stroked-text"><desc>J1</desc>
<path d="M17.5317 35.1231
L17.5317 35.8374
" />
<path d="M17.5317 35.8374
L17.4840 35.9802
" />
<path d="M17.4840 35.9802
L17.3888 36.0754
" />
<path d="M17.3888 36.0754
L17.2460 36.1231
" />
<path d="M17.2460 36.1231
L17.1507 36.1231
" />
<path d="M18.5317 36.1231
L17.9602 36.1231
" />
<path d="M18.2460 36.1231
L18.2460 35.1231
" />
<path d="M18.2460 35.1231
L18.1507 35.2659
" />
<path d="M18.1507 35.2659
L18.0555 35.3612
" />
<path d="M18.0555 35.3612
L17.9602 35.4088
" />
</g><text x="36.6750" y="31.3483"
textLength="2.2500" font-size="1.3333" lengthAdjust="spacingAndGlyphs"
text-anchor="middle" opacity="0">H9</text>
<g class="stroked-text"><desc>H9</desc>
<path d="M35.9131 31.3031
L35.9131 30.3031
" />
<path d="M35.9131 30.7793
L36.4845 30.7793
" />
<path d="M36.4845 31.3031
L36.4845 30.3031
" />
<path d="M37.0083 31.3031
L37.1988 31.3031
" />
<path d="M37.1988 31.3031
L37.2940 31.2554
" />
<path d="M37.2940 31.2554
L37.3417 31.2078
" />
<path d="M37.3417 31.2078
L37.4369 31.0650
" />
<path d="M37.4369 31.0650
L37.4845 30.8745
" />
<path d="M37.4845 30.8745
L37.4845 30.4935
" />
<path d="M37.4845 30.4935
L37.4369 30.3983
" />
<path d="M37.4369 30.3983
L37.3893 30.3507
" />
<path d="M37.3893 30.3507
L37.2940 30.3031
" />
<path d="M37.2940 30.3031
L37.1036 30.3031
" />
<path d="M37.1036 30.3031
L37.0083 30.3507
" />
<path d="M37.0083 30.3507
L36.9607 30.3983
" />
<path d="M36.9607 30.3983
L36.9131 30.4935
" />
<path d="M36.9131 30.4935
L36.9131 30.7316
" />
<path d="M36.9131 30.7316
L36.9607 30.8269
" />
<path d="M36.9607 30.8269
L37.0083 30.8745
" />
<path d="M37.0083 30.8745
L37.1036 30.9221
" />
<path d="M37.1036 30.9221
L37.2940 30.9221
" />
<path d="M37.2940 30.9221
L37.3893 30.8745
" />
<path d="M37.3893 30.8745
L37.4369 30.8269
" />
<path d="M37.4369 30.8269
L37.4845 30.7316
" />
</g><text x="21.6750" y="1.3482"
textLength="2.2500" font-size="1.3333" lengthAdjust="spacingAndGlyphs"
text-anchor="middle" opacity="0">H3</text>
<g class="stroked-text"><desc>H3</desc>
<path d="M20.9131 1.3031
L20.9131 0.3031
" />
<path d="M20.9131 0.7793
L21.4845 0.7793
" />
<path d="M21.4845 1.3031
L21.4845 0.3031
" />
<path d="M21.8655 0.3031
L22.4845 0.3031
" />
<path d="M22.4845 0.3031
L22.1512 0.6840
" />
<path d="M22.1512 0.6840
L22.2940 0.6840
" />
<path d="M22.2940 0.6840
L22.3893 0.7316
" />
<path d="M22.3893 0.7316
L22.4369 0.7793
" />
<path d="M22.4369 0.7793
L22.4845 0.8745
" />
<path d="M22.4845 0.8745
L22.4845 1.1126
" />
<path d="M22.4845 1.1126
L22.4369 1.2078
" />
<path d="M22.4369 1.2078
L22.3893 1.2554
" />
<path d="M22.3893 1.2554
L22.2940 1.3031
" />
<path d="M22.2940 1.3031
L22.0083 1.3031
" />
<path d="M22.0083 1.3031
L21.9131 1.2554
" />
<path d="M21.9131 1.2554
L21.8655 1.2078
" />
</g><text x="36.6750" y="1.3482"
textLength="2.2500" font-size="1.3333" lengthAdjust="spacingAndGlyphs"
text-anchor="middle" opacity="0">H5</text>
<g class="stroked-text"><desc>H5</desc>
<path d="M35.9131 1.3031
L35.9131 0.3031
" />
<path d="M35.9131 0.7793
L36.4845 0.7793
" />
<path d="M36.4845 1.3031
L36.4845 0.3031
" />
<path d="M37.4369 0.3031
L36.9607 0.3031
" />
<path d="M36.9607 0.3031
L36.9131 0.7793
" />
<path d="M36.9131 0.7793
L36.9607 0.7316
" />
<path d="M36.9607 0.7316
L37.0560 0.6840
" />
<path d="M37.0560 0.6840
L37.2940 0.6840
" />
<path d="M37.2940 0.6840
L37.3893 0.7316
" />
<path d="M37.3893 0.7316
L37.4369 0.7793
" />
<path d="M37.4369 0.7793
L37.4845 0.8745
" />
<path d="M37.4845 0.8745
L37.4845 1.1126
" />
<path d="M37.4845 1.1126
L37.4369 1.2078
" />
<path d="M37.4369 1.2078
L37.3893 1.2554
" />
<path d="M37.3893 1.2554
L37.2940 1.3031
" />
<path d="M37.2940 1.3031
L37.0560 1.3031
" />
<path d="M37.0560 1.3031
L36.9607 1.2554
" />
<path d="M36.9607 1.2554
L36.9131 1.2078
" />
</g><text x="29.1750" y="34.5482"
textLength="2.2500" font-size="1.3333" lengthAdjust="spacingAndGlyphs"
text-anchor="middle" opacity="0">H8</text>
<g class="stroked-text"><desc>H8</desc>
<path d="M28.4131 34.5031
L28.4131 33.5031
" />
<path d="M28.4131 33.9793
L28.9845 33.9793
" />
<path d="M28.9845 34.5031
L28.9845 33.5031
" />
<path d="M29.6036 33.9316
L29.5083 33.8840
" />
<path d="M29.5083 33.8840
L29.4607 33.8364
" />
<path d="M29.4607 33.8364
L29.4131 33.7412
" />
<path d="M29.4131 33.7412
L29.4131 33.6935
" />
<path d="M29.4131 33.6935
L29.4607 33.5983
" />
<path d="M29.4607 33.5983
L29.5083 33.5507
" />
<path d="M29.5083 33.5507
L29.6036 33.5031
" />
<path d="M29.6036 33.5031
L29.7940 33.5031
" />
<path d="M29.7940 33.5031
L29.8893 33.5507
" />
<path d="M29.8893 33.5507
L29.9369 33.5983
" />
<path d="M29.9369 33.5983
L29.9845 33.6935
" />
<path d="M29.9845 33.6935
L29.9845 33.7412
" />
<path d="M29.9845 33.7412
L29.9369 33.8364
" />
<path d="M29.9369 33.8364
L29.8893 33.8840
" />
<path d="M29.8893 33.8840
L29.7940 33.9316
" />
<path d="M29.7940 33.9316
L29.6036 33.9316
" />
<path d="M29.6036 33.9316
L29.5083 33.9793
" />
<path d="M29.5083 33.9793
L29.4607 34.0269
" />
<path d="M29.4607 34.0269
L29.4131 34.1221
" />
<path d="M29.4131 34.1221
L29.4131 34.3126
" />
<path d="M29.4131 34.3126
L29.4607 34.4078
" />
<path d="M29.4607 34.4078
L29.5083 34.4554
" />
<path d="M29.5083 34.4554
L29.6036 34.5031
" />
<path d="M29.6036 34.5031
L29.7940 34.5031
" />
<path d="M29.7940 34.5031
L29.8893 34.4554
" />
<path d="M29.8893 34.4554
L29.9369 34.4078
" />
<path d="M29.9369 34.4078
L29.9845 34.3126
" />
<path d="M29.9845 34.3126
L29.9845 34.1221
" />
<path d="M29.9845 34.1221
L29.9369 34.0269
" />
<path d="M29.9369 34.0269
L29.8893 33.9793
" />
<path d="M29.8893 33.9793
L29.7940 33.9316
" />
</g><text x="6.6750" y="1.3482"
textLength="2.2500" font-size="1.3333" lengthAdjust="spacingAndGlyphs"
text-anchor="middle" opacity="0">H1</text>
<g class="stroked-text"><desc>H1</desc>
<path d="M5.9131 1.3031
L5.9131 0.3031
" />
<path d="M5.9131 0.7793
L6.4845 0.7793
" />
<path d="M6.4845 1.3031
L6.4845 0.3031
" />
<path d="M7.4845 1.3031
L6.9131 1.3031
" />
<path d="M7.1988 1.3031
L7.1988 0.3031
" />
<path d="M7.1988 0.3031
L7.1036 0.4459
" />
<path d="M7.1036 0.4459
L7.0083 0.5412
" />
<path d="M7.0083 0.5412
L6.9131 0.5888
" />
</g><text x="14.1750" y="34.5482"
textLength="2.2500" font-size="1.3333" lengthAdjust="spacingAndGlyphs"
text-anchor="middle" opacity="0">H7</text>
<g class="stroked-text"><desc>H7</desc>
<path d="M13.4131 34.5031
L13.4131 33.5031
" />
<path d="M13.4131 33.9793
L13.9845 33.9793
" />
<path d="M13.9845 34.5031
L13.9845 33.5031
" />
<path d="M14.3655 33.5031
L15.0321 33.5031
" />
<path d="M15.0321 33.5031
L14.6036 34.5031
" />
</g><text x="29.1750" y="4.5482"
textLength="2.2500" font-size="1.3333" lengthAdjust="spacingAndGlyphs"
text-anchor="middle" opacity="0">H4</text>
<g class="stroked-text"><desc>H4</desc>
<path d="M28.4131 4.5031
L28.4131 3.5031
" />
<path d="M28.4131 3.9793
L28.9845 3.9793
" />
<path d="M28.9845 4.5031
L28.9845 3.5031
" />
<path d="M29.8893 3.8364
L29.8893 4.5031
" />
<path d="M29.6512 3.4554
L29.4131 4.1697
" />
<path d="M29.4131 4.1697
L30.0321 4.1697
" />
</g><text x="6.6750" y="31.3483"
textLength="2.2500" font-size="1.3333" lengthAdjust="spacingAndGlyphs"
text-anchor="middle" opacity="0">H6</text>
<g class="stroked-text"><desc>H6</desc>
<path d="M5.9131 31.3031
L5.9131 30.3031
" />
<path d="M5.9131 30.7793
L6.4845 30.7793
" />
<path d="M6.4845 31.3031
L6.4845 30.3031
" />
<path d="M7.3893 30.3031
L7.1988 30.3031
" />
<path d="M7.1988 30.3031
L7.1036 30.3507
" />
<path d="M7.1036 30.3507
L7.0560 30.3983
" />
<path d="M7.0560 30.3983
L6.9607 30.5412
" />
<path d="M6.9607 30.5412
L6.9131 30.7316
" />
<path d="M6.9131 30.7316
L6.9131 31.1126
" />
<path d="M6.9131 31.1126
L6.9607 31.2078
" />
<path d="M6.9607 31.2078
L7.0083 31.2554
" />
<path d="M7.0083 31.2554
L7.1036 31.3031
" />
<path d="M7.1036 31.3031
L7.2940 31.3031
" />
<path d="M7.2940 31.3031
L7.3893 31.2554
" />
<path d="M7.3893 31.2554
L7.4369 31.2078
" />
<path d="M7.4369 31.2078
L7.4845 31.1126
" />
<path d="M7.4845 31.1126
L7.4845 30.8745
" />
<path d="M7.4845 30.8745
L7.4369 30.7793
" />
<path d="M7.4369 30.7793
L7.3893 30.7316
" />
<path d="M7.3893 30.7316
L7.2940 30.6840
" />
<path d="M7.2940 30.6840
L7.1036 30.6840
" />
<path d="M7.1036 30.6840
L7.0083 30.7316
" />
<path d="M7.0083 30.7316
L6.9607 30.7793
" />
<path d="M6.9607 30.7793
L6.9131 30.8745
" />
</g></g>
<g style="fill:#F2EDA1; fill-opacity:0.0; 
stroke:#F2EDA1; stroke-width:0.1200; stroke-opacity:1; 
stroke-linecap:round; stroke-linejoin:round;">
<path d="M16.5350 36.6683
L17.8650 36.6683
" />
<path d="M16.5350 37.9982
L16.5350 36.6683
" />
<path d="M16.5350 39.2682
L16.5350 46.9482
" />
<path d="M16.5350 39.2682
L19.1950 39.2682
" />
<path d="M16.5350 46.9482
L19.1950 46.9482
" />
<path d="M19.1950 39.2682
L19.1950 46.9482
" />
<g >
</g>
<g >
</g>
<g >
</g>
<g >
</g>
<g >
</g>
<g >
</g>
<g >
</g>
<g >
</g>
<g >
</g>
<g >
</g>
<g >
</g>
<g >
</g>
<g >
</g>
</g>
<g style="fill:#FFFFFF; fill-opacity:0.0; 
stroke:#FFFFFF; stroke-width:0.1200; stroke-opacity:1; 
stroke-linecap:round; stroke-linejoin:round;">
</g>
<g style="fill:#FFFFFF; fill-opacity:1.0000; 
stroke:#FFFFFF; stroke-width:0.0000; stroke-opacity:1; 
stroke-linecap:round; stroke-linejoin:round;">
<circle cx="14.1750" cy="8.2482" r="1.6000" /> 
</g>
<g style="fill:#FFFFFF; fill-opacity:1.0000; 
stroke:#FFFFFF; stroke-width:0.0212; stroke-opacity:1; 
stroke-linecap:round; stroke-linejoin:round;">
</g>
<g style="fill:#FFFFFF; fill-opacity:1.0000; 
stroke:#FFFFFF; stroke-width:0.0000; stroke-opacity:1; 
stroke-linecap:round; stroke-linejoin:round;">
<circle cx="17.8650" cy="37.9982" r="0.5000" /> 
</g>
<g style="fill:#FFFFFF; fill-opacity:1.0000; 
stroke:#FFFFFF; stroke-width:0.0212; stroke-opacity:1; 
stroke-linecap:round; stroke-linejoin:round;">
</g>
<g style="fill:#FFFFFF; fill-opacity:1.0000; 
stroke:#FFFFFF; stroke-width:0.0000; stroke-opacity:1; 
stroke-linecap:round; stroke-linejoin:round;">
<circle cx="17.8650" cy="40.5382" r="0.5000" /> 
</g>
<g style="fill:#FFFFFF; fill-opacity:1.0000; 
stroke:#FFFFFF; stroke-width:0.0212; stroke-opacity:1; 
stroke-linecap:round; stroke-linejoin:round;">
</g>
<g style="fill:#FFFFFF; fill-opacity:1.0000; 
stroke:#FFFFFF; stroke-width:0.0000; stroke-opacity:1; 
stroke-linecap:round; stroke-linejoin:round;">
<circle cx="17.8650" cy="43.0782" r="0.5000" /> 
</g>
<g style="fill:#FFFFFF; fill-opacity:1.0000; 
stroke:#FFFFFF; stroke-width:0.0212; stroke-opacity:1; 
stroke-linecap:round; stroke-linejoin:round;">
</g>
<g style="fill:#FFFFFF; fill-opacity:1.0000; 
stroke:#FFFFFF; stroke-width:0.0000; stroke-opacity:1; 
stroke-linecap:round; stroke-linejoin:round;">
<circle cx="17.8650" cy="45.6182" r="0.5000" /> 
</g>
<g style="fill:#FFFFFF; fill-opacity:1.0000; 
stroke:#FFFFFF; stroke-width:0.0212; stroke-opacity:1; 
stroke-linecap:round; stroke-linejoin:round;">
</g>
<g style="fill:#FFFFFF; fill-opacity:1.0000; 
stroke:#FFFFFF; stroke-width:0.0000; stroke-opacity:1; 
stroke-linecap:round; stroke-linejoin:round;">
<circle cx="36.6750" cy="38.2482" r="3.2000" /> 
</g>
<g style="fill:#FFFFFF; fill-opacity:1.0000; 
stroke:#FFFFFF; stroke-width:0.0212; stroke-opacity:1; 
stroke-linecap:round; stroke-linejoin:round;">
</g>
<g style="fill:#FFFFFF; fill-opacity:1.0000; 
stroke:#FFFFFF; stroke-width:0.0000; stroke-opacity:1; 
stroke-linecap:round; stroke-linejoin:round;">
<circle cx="21.6750" cy="8.2482" r="3.2000" /> 
</g>
<g style="fill:#FFFFFF; fill-opacity:1.0000; 
stroke:#FFFFFF; stroke-width:0.0212; stroke-opacity:1; 
stroke-linecap:round; stroke-linejoin:round;">
</g>
<g style="fill:#FFFFFF; fill-opacity:1.0000; 
stroke:#FFFFFF; stroke-width:0.0000; stroke-opacity:1; 
stroke-linecap:round; stroke-linejoin:round;">
<circle cx="36.6750" cy="8.2482" r="3.2000" /> 
</g>
<g style="fill:#FFFFFF; fill-opacity:1.0000; 
stroke:#FFFFFF; stroke-width:0.0212; stroke-opacity:1; 
stroke-linecap:round; stroke-linejoin:round;">
</g>
<g style="fill:#FFFFFF; fill-opacity:1.0000; 
stroke:#FFFFFF; stroke-width:0.0000; stroke-opacity:1; 
stroke-linecap:round; stroke-linejoin:round;">
<circle cx="29.1750" cy="38.2482" r="1.6000" /> 
</g>
<g style="fill:#FFFFFF; fill-opacity:1.0000; 
stroke:#FFFFFF; stroke-width:0.0212; stroke-opacity:1; 
stroke-linecap:round; stroke-linejoin:round;">
</g>
<g style="fill:#FFFFFF; fill-opacity:1.0000; 
stroke:#FFFFFF; stroke-width:0.0000; stroke-opacity:1; 
stroke-linecap:round; stroke-linejoin:round;">
<circle cx="6.6750" cy="8.2482" r="3.2000" /> 
</g>
<g style="fill:#FFFFFF; fill-opacity:1.0000; 
stroke:#FFFFFF; stroke-width:0.0212; stroke-opacity:1; 
stroke-linecap:round; stroke-linejoin:round;">
</g>
<g style="fill:#FFFFFF; fill-opacity:1.0000; 
stroke:#FFFFFF; stroke-width:0.0000; stroke-opacity:1; 
stroke-linecap:round; stroke-linejoin:round;">
<circle cx="14.1750" cy="38.2482" r="1.6000" /> 
</g>
<g style="fill:#FFFFFF; fill-opacity:1.0000; 
stroke:#FFFFFF; stroke-width:0.0212; stroke-opacity:1; 
stroke-linecap:round; stroke-linejoin:round;">
</g>
<g style="fill:#FFFFFF; fill-opacity:1.0000; 
stroke:#FFFFFF; stroke-width:0.0000; stroke-opacity:1; 
stroke-linecap:round; stroke-linejoin:round;">
<circle cx="29.1750" cy="8.2482" r="1.6000" /> 
</g>
<g style="fill:#FFFFFF; fill-opacity:1.0000; 
stroke:#FFFFFF; stroke-width:0.0212; stroke-opacity:1; 
stroke-linecap:round; stroke-linejoin:round;">
</g>
<g style="fill:#FFFFFF; fill-opacity:1.0000; 
stroke:#FFFFFF; stroke-width:0.0000; stroke-opacity:1; 
stroke-linecap:round; stroke-linejoin:round;">
<circle cx="6.6750" cy="38.2482" r="3.2000" /> 
</g>
<g style="fill:#FFFFFF; fill-opacity:1.0000; 
stroke:#FFFFFF; stroke-width:0.0212; stroke-opacity:1; 
stroke-linecap:round; stroke-linejoin:round;">
</g>
<g style="fill:#000000; fill-opacity:1.0000; 
stroke:#000000; stroke-width:0.0212; stroke-opacity:1; 
stroke-linecap:round; stroke-linejoin:round;">
<g >
</g>
<g >
</g>
<g >
</g>
<g >
</g>
<g >
</g>
<g >
</g>
<g >
</g>
<g >
</g>
<g >
</g>
<g >
</g>
<g >
</g>
<g >
</g>
<g >
</g>
</g>
<g style="fill:#000000; fill-opacity:1.0000; 
stroke:#000000; stroke-width:0.0212; stroke-opacity:1; 
stroke-linecap:round; stroke-linejoin:round;">
</g>
<g style="fill:#FF26E2; fill-opacity:1.0000; 
stroke:#FF26E2; stroke-width:0.0212; stroke-opacity:1; 
stroke-linecap:round; stroke-linejoin:round;">
</g>
<g style="fill:#FF26E2; fill-opacity:0.0; 
stroke:#FF26E2; stroke-width:0.0500; stroke-opacity:1; 
stroke-linecap:round; stroke-linejoin:round;">
<circle cx="14.1750" cy="8.2482" r="3.4500" /> 
<path d="M16.0650 36.1983
L16.0650 47.3982
" />
<path d="M16.0650 47.3982
L19.6650 47.3982
" />
<path d="M19.6650 36.1983
L16.0650 36.1983
" />
<path d="M19.6650 47.3982
L19.6650 36.1983
" />
<circle cx="36.6750" cy="38.2482" r="6.6500" /> 
<circle cx="21.6750" cy="8.2482" r="6.6500" /> 
<circle cx="36.6750" cy="8.2482" r="6.6500" /> 
<circle cx="29.1750" cy="38.2482" r="3.4500" /> 
<circle cx="6.6750" cy="8.2482" r="6.6500" /> 
<circle cx="14.1750" cy="38.2482" r="3.4500" /> 
<circle cx="29.1750" cy="8.2482" r="3.4500" /> 
<circle cx="6.6750" cy="38.2482" r="6.6500" /> 
<g >
</g>
<g >
</g>
<g >
</g>
<g >
</g>
<g >
</g>
<g >
</g>
<g >
</g>
<g >
</g>
<g >
</g>
<g >
</g>
<g >
</g>
<g >
</g>
<g >
</g>
</g>
<g style="fill:#000000; fill-opacity:0.0; 
stroke:#000000; stroke-width:0.0500; stroke-opacity:1; 
stroke-linecap:round; stroke-linejoin:round;">
</g>
<g style="fill:#AFAFAF; fill-opacity:0.0; 
stroke:#AFAFAF; stroke-width:0.0500; stroke-opacity:1; 
stroke-linecap:round; stroke-linejoin:round;">
</g>
<g style="fill:#AFAFAF; fill-opacity:0.0; 
stroke:#AFAFAF; stroke-width:0.1500; stroke-opacity:1; 
stroke-linecap:round; stroke-linejoin:round;">
<text x="14.1750" y="12.9482"
textLength="4.7738" font-size="1.3333" lengthAdjust="spacingAndGlyphs"
text-anchor="middle" opacity="0">mhm3</text>
<g class="stroked-text"><desc>mhm3</desc>
<path d="M12.1512 12.9031
L12.1512 12.2364
" />
<path d="M12.1512 12.3316
L12.1988 12.2840
" />
<path d="M12.1988 12.2840
L12.2940 12.2364
" />
<path d="M12.2940 12.2364
L12.4369 12.2364
" />
<path d="M12.4369 12.2364
L12.5321 12.2840
" />
<path d="M12.5321 12.2840
L12.5798 12.3793
" />
<path d="M12.5798 12.3793
L12.5798 12.9031
" />
<path d="M12.5798 12.3793
L12.6274 12.2840
" />
<path d="M12.6274 12.2840
L12.7226 12.2364
" />
<path d="M12.7226 12.2364
L12.8655 12.2364
" />
<path d="M12.8655 12.2364
L12.9607 12.2840
" />
<path d="M12.9607 12.2840
L13.0083 12.3793
" />
<path d="M13.0083 12.3793
L13.0083 12.9031
" />
<path d="M13.4845 12.9031
L13.4845 11.9031
" />
<path d="M13.9131 12.9031
L13.9131 12.3793
" />
<path d="M13.9131 12.3793
L13.8655 12.2840
" />
<path d="M13.8655 12.2840
L13.7702 12.2364
" />
<path d="M13.7702 12.2364
L13.6274 12.2364
" />
<path d="M13.6274 12.2364
L13.5321 12.2840
" />
<path d="M13.5321 12.2840
L13.4845 12.3316
" />
<path d="M14.3893 12.9031
L14.3893 12.2364
" />
<path d="M14.3893 12.3316
L14.4369 12.2840
" />
<path d="M14.4369 12.2840
L14.5321 12.2364
" />
<path d="M14.5321 12.2364
L14.6750 12.2364
" />
<path d="M14.6750 12.2364
L14.7702 12.2840
" />
<path d="M14.7702 12.2840
L14.8179 12.3793
" />
<path d="M14.8179 12.3793
L14.8179 12.9031
" />
<path d="M14.8179 12.3793
L14.8655 12.2840
" />
<path d="M14.8655 12.2840
L14.9607 12.2364
" />
<path d="M14.9607 12.2364
L15.1036 12.2364
" />
<path d="M15.1036 12.2364
L15.1988 12.2840
" />
<path d="M15.1988 12.2840
L15.2464 12.3793
" />
<path d="M15.2464 12.3793
L15.2464 12.9031
" />
<path d="M15.6274 11.9031
L16.2464 11.9031
" />
<path d="M16.2464 11.9031
L15.9131 12.2840
" />
<path d="M15.9131 12.2840
L16.0560 12.2840
" />
<path d="M16.0560 12.2840
L16.1512 12.3316
" />
<path d="M16.1512 12.3316
L16.1988 12.3793
" />
<path d="M16.1988 12.3793
L16.2464 12.4745
" />
<path d="M16.2464 12.4745
L16.2464 12.7126
" />
<path d="M16.2464 12.7126
L16.1988 12.8078
" />
<path d="M16.1988 12.8078
L16.1512 12.8554
" />
<path d="M16.1512 12.8554
L16.0560 12.9031
" />
<path d="M16.0560 12.9031
L15.7702 12.9031
" />
<path d="M15.7702 12.9031
L15.6750 12.8554
" />
<path d="M15.6750 12.8554
L15.6274 12.8078
" />
</g><text x="14.1750" y="8.7482"
textLength="2.2500" font-size="1.3333" lengthAdjust="spacingAndGlyphs"
text-anchor="middle" opacity="0">H2</text>
<g class="stroked-text"><desc>H2</desc>
<path d="M13.4131 8.7031
L13.4131 7.7031
" />
<path d="M13.4131 8.1793
L13.9845 8.1793
" />
<path d="M13.9845 8.7031
L13.9845 7.7031
" />
<path d="M14.4131 7.7983
L14.4607 7.7507
" />
<path d="M14.4607 7.7507
L14.5560 7.7031
" />
<path d="M14.5560 7.7031
L14.7940 7.7031
" />
<path d="M14.7940 7.7031
L14.8893 7.7507
" />
<path d="M14.8893 7.7507
L14.9369 7.7983
" />
<path d="M14.9369 7.7983
L14.9845 7.8935
" />
<path d="M14.9845 7.8935
L14.9845 7.9888
" />
<path d="M14.9845 7.9888
L14.9369 8.1316
" />
<path d="M14.9369 8.1316
L14.3655 8.7031
" />
<path d="M14.3655 8.7031
L14.9845 8.7031
" />
</g><text x="17.8650" y="48.4482"
textLength="31.1548" font-size="1.3333" lengthAdjust="spacingAndGlyphs"
text-anchor="middle" opacity="0">hi14p_electronic_header_2d54_mm_4_pin</text>
<g class="stroked-text"><desc>hi14p_electronic_header_2d54_mm_4_pin</desc>
<path d="M2.6507 48.4031
L2.6507 47.4031
" />
<path d="M3.0793 48.4031
L3.0793 47.8793
" />
<path d="M3.0793 47.8793
L3.0317 47.7840
" />
<path d="M3.0317 47.7840
L2.9364 47.7364
" />
<path d="M2.9364 47.7364
L2.7936 47.7364
" />
<path d="M2.7936 47.7364
L2.6983 47.7840
" />
<path d="M2.6983 47.7840
L2.6507 47.8316
" />
<path d="M3.5555 48.4031
L3.5555 47.7364
" />
<path d="M3.5555 47.4031
L3.5079 47.4507
" />
<path d="M3.5079 47.4507
L3.5555 47.4983
" />
<path d="M3.5555 47.4983
L3.6031 47.4507
" />
<path d="M3.6031 47.4507
L3.5555 47.4031
" />
<path d="M3.5555 47.4031
L3.5555 47.4983
" />
<path d="M4.5555 48.4031
L3.9840 48.4031
" />
<path d="M4.2698 48.4031
L4.2698 47.4031
" />
<path d="M4.2698 47.4031
L4.1745 47.5459
" />
<path d="M4.1745 47.5459
L4.0793 47.6412
" />
<path d="M4.0793 47.6412
L3.9840 47.6888
" />
<path d="M5.4126 47.7364
L5.4126 48.4031
" />
<path d="M5.1745 47.3554
L4.9364 48.0697
" />
<path d="M4.9364 48.0697
L5.5555 48.0697
" />
<path d="M5.9364 47.7364
L5.9364 48.7364
" />
<path d="M5.9364 47.7840
L6.0317 47.7364
" />
<path d="M6.0317 47.7364
L6.2221 47.7364
" />
<path d="M6.2221 47.7364
L6.3174 47.7840
" />
<path d="M6.3174 47.7840
L6.3650 47.8316
" />
<path d="M6.3650 47.8316
L6.4126 47.9269
" />
<path d="M6.4126 47.9269
L6.4126 48.2126
" />
<path d="M6.4126 48.2126
L6.3650 48.3078
" />
<path d="M6.3650 48.3078
L6.3174 48.3554
" />
<path d="M6.3174 48.3554
L6.2221 48.4031
" />
<path d="M6.2221 48.4031
L6.0317 48.4031
" />
<path d="M6.0317 48.4031
L5.9364 48.3554
" />
<path d="M6.6031 48.4983
L7.3650 48.4983
" />
<path d="M7.9840 48.3554
L7.8888 48.4031
" />
<path d="M7.8888 48.4031
L7.6983 48.4031
" />
<path d="M7.6983 48.4031
L7.6031 48.3554
" />
<path d="M7.6031 48.3554
L7.5555 48.2602
" />
<path d="M7.5555 48.2602
L7.5555 47.8793
" />
<path d="M7.5555 47.8793
L7.6031 47.7840
" />
<path d="M7.6031 47.7840
L7.6983 47.7364
" />
<path d="M7.6983 47.7364
L7.8888 47.7364
" />
<path d="M7.8888 47.7364
L7.9840 47.7840
" />
<path d="M7.9840 47.7840
L8.0317 47.8793
" />
<path d="M8.0317 47.8793
L8.0317 47.9745
" />
<path d="M8.0317 47.9745
L7.5555 48.0697
" />
<path d="M8.6031 48.4031
L8.5079 48.3554
" />
<path d="M8.5079 48.3554
L8.4602 48.2602
" />
<path d="M8.4602 48.2602
L8.4602 47.4031
" />
<path d="M9.3650 48.3554
L9.2698 48.4031
" />
<path d="M9.2698 48.4031
L9.0793 48.4031
" />
<path d="M9.0793 48.4031
L8.9840 48.3554
" />
<path d="M8.9840 48.3554
L8.9364 48.2602
" />
<path d="M8.9364 48.2602
L8.9364 47.8793
" />
<path d="M8.9364 47.8793
L8.9840 47.7840
" />
<path d="M8.9840 47.7840
L9.0793 47.7364
" />
<path d="M9.0793 47.7364
L9.2698 47.7364
" />
<path d="M9.2698 47.7364
L9.3650 47.7840
" />
<path d="M9.3650 47.7840
L9.4126 47.8793
" />
<path d="M9.4126 47.8793
L9.4126 47.9745
" />
<path d="M9.4126 47.9745
L8.9364 48.0697
" />
<path d="M10.2698 48.3554
L10.1745 48.4031
" />
<path d="M10.1745 48.4031
L9.9840 48.4031
" />
<path d="M9.9840 48.4031
L9.8888 48.3554
" />
<path d="M9.8888 48.3554
L9.8412 48.3078
" />
<path d="M9.8412 48.3078
L9.7936 48.2126
" />
<path d="M9.7936 48.2126
L9.7936 47.9269
" />
<path d="M9.7936 47.9269
L9.8412 47.8316
" />
<path d="M9.8412 47.8316
L9.8888 47.7840
" />
<path d="M9.8888 47.7840
L9.9840 47.7364
" />
<path d="M9.9840 47.7364
L10.1745 47.7364
" />
<path d="M10.1745 47.7364
L10.2698 47.7840
" />
<path d="M10.5555 47.7364
L10.9364 47.7364
" />
<path d="M10.6983 47.4031
L10.6983 48.2602
" />
<path d="M10.6983 48.2602
L10.7460 48.3554
" />
<path d="M10.7460 48.3554
L10.8412 48.4031
" />
<path d="M10.8412 48.4031
L10.9364 48.4031
" />
<path d="M11.2698 48.4031
L11.2698 47.7364
" />
<path d="M11.2698 47.9269
L11.3174 47.8316
" />
<path d="M11.3174 47.8316
L11.3650 47.7840
" />
<path d="M11.3650 47.7840
L11.4602 47.7364
" />
<path d="M11.4602 47.7364
L11.5555 47.7364
" />
<path d="M12.0317 48.4031
L11.9364 48.3554
" />
<path d="M11.9364 48.3554
L11.8888 48.3078
" />
<path d="M11.8888 48.3078
L11.8412 48.2126
" />
<path d="M11.8412 48.2126
L11.8412 47.9269
" />
<path d="M11.8412 47.9269
L11.8888 47.8316
" />
<path d="M11.8888 47.8316
L11.9364 47.7840
" />
<path d="M11.9364 47.7840
L12.0317 47.7364
" />
<path d="M12.0317 47.7364
L12.1745 47.7364
" />
<path d="M12.1745 47.7364
L12.2698 47.7840
" />
<path d="M12.2698 47.7840
L12.3174 47.8316
" />
<path d="M12.3174 47.8316
L12.3650 47.9269
" />
<path d="M12.3650 47.9269
L12.3650 48.2126
" />
<path d="M12.3650 48.2126
L12.3174 48.3078
" />
<path d="M12.3174 48.3078
L12.2698 48.3554
" />
<path d="M12.2698 48.3554
L12.1745 48.4031
" />
<path d="M12.1745 48.4031
L12.0317 48.4031
" />
<path d="M12.7936 47.7364
L12.7936 48.4031
" />
<path d="M12.7936 47.8316
L12.8412 47.7840
" />
<path d="M12.8412 47.7840
L12.9364 47.7364
" />
<path d="M12.9364 47.7364
L13.0793 47.7364
" />
<path d="M13.0793 47.7364
L13.1745 47.7840
" />
<path d="M13.1745 47.7840
L13.2221 47.8793
" />
<path d="M13.2221 47.8793
L13.2221 48.4031
" />
<path d="M13.6983 48.4031
L13.6983 47.7364
" />
<path d="M13.6983 47.4031
L13.6507 47.4507
" />
<path d="M13.6507 47.4507
L13.6983 47.4983
" />
<path d="M13.6983 47.4983
L13.7460 47.4507
" />
<path d="M13.7460 47.4507
L13.6983 47.4031
" />
<path d="M13.6983 47.4031
L13.6983 47.4983
" />
<path d="M14.6031 48.3554
L14.5079 48.4031
" />
<path d="M14.5079 48.4031
L14.3174 48.4031
" />
<path d="M14.3174 48.4031
L14.2221 48.3554
" />
<path d="M14.2221 48.3554
L14.1745 48.3078
" />
<path d="M14.1745 48.3078
L14.1269 48.2126
" />
<path d="M14.1269 48.2126
L14.1269 47.9269
" />
<path d="M14.1269 47.9269
L14.1745 47.8316
" />
<path d="M14.1745 47.8316
L14.2221 47.7840
" />
<path d="M14.2221 47.7840
L14.3174 47.7364
" />
<path d="M14.3174 47.7364
L14.5079 47.7364
" />
<path d="M14.5079 47.7364
L14.6031 47.7840
" />
<path d="M14.7936 48.4983
L15.5555 48.4983
" />
<path d="M15.7936 48.4031
L15.7936 47.4031
" />
<path d="M16.2221 48.4031
L16.2221 47.8793
" />
<path d="M16.2221 47.8793
L16.1745 47.7840
" />
<path d="M16.1745 47.7840
L16.0793 47.7364
" />
<path d="M16.0793 47.7364
L15.9364 47.7364
" />
<path d="M15.9364 47.7364
L15.8412 47.7840
" />
<path d="M15.8412 47.7840
L15.7936 47.8316
" />
<path d="M17.0793 48.3554
L16.9840 48.4031
" />
<path d="M16.9840 48.4031
L16.7936 48.4031
" />
<path d="M16.7936 48.4031
L16.6983 48.3554
" />
<path d="M16.6983 48.3554
L16.6507 48.2602
" />
<path d="M16.6507 48.2602
L16.6507 47.8793
" />
<path d="M16.6507 47.8793
L16.6983 47.7840
" />
<path d="M16.6983 47.7840
L16.7936 47.7364
" />
<path d="M16.7936 47.7364
L16.9840 47.7364
" />
<path d="M16.9840 47.7364
L17.0793 47.7840
" />
<path d="M17.0793 47.7840
L17.1269 47.8793
" />
<path d="M17.1269 47.8793
L17.1269 47.9745
" />
<path d="M17.1269 47.9745
L16.6507 48.0697
" />
<path d="M17.9840 48.4031
L17.9840 47.8793
" />
<path d="M17.9840 47.8793
L17.9364 47.7840
" />
<path d="M17.9364 47.7840
L17.8412 47.7364
" />
<path d="M17.8412 47.7364
L17.6507 47.7364
" />
<path d="M17.6507 47.7364
L17.5555 47.7840
" />
<path d="M17.9840 48.3554
L17.8888 48.4031
" />
<path d="M17.8888 48.4031
L17.6507 48.4031
" />
<path d="M17.6507 48.4031
L17.5555 48.3554
" />
<path d="M17.5555 48.3554
L17.5079 48.2602
" />
<path d="M17.5079 48.2602
L17.5079 48.1650
" />
<path d="M17.5079 48.1650
L17.5555 48.0697
" />
<path d="M17.5555 48.0697
L17.6507 48.0221
" />
<path d="M17.6507 48.0221
L17.8888 48.0221
" />
<path d="M17.8888 48.0221
L17.9840 47.9745
" />
<path d="M18.8888 48.4031
L18.8888 47.4031
" />
<path d="M18.8888 48.3554
L18.7936 48.4031
" />
<path d="M18.7936 48.4031
L18.6031 48.4031
" />
<path d="M18.6031 48.4031
L18.5079 48.3554
" />
<path d="M18.5079 48.3554
L18.4602 48.3078
" />
<path d="M18.4602 48.3078
L18.4126 48.2126
" />
<path d="M18.4126 48.2126
L18.4126 47.9269
" />
<path d="M18.4126 47.9269
L18.4602 47.8316
" />
<path d="M18.4602 47.8316
L18.5079 47.7840
" />
<path d="M18.5079 47.7840
L18.6031 47.7364
" />
<path d="M18.6031 47.7364
L18.7936 47.7364
" />
<path d="M18.7936 47.7364
L18.8888 47.7840
" />
<path d="M19.7460 48.3554
L19.6507 48.4031
" />
<path d="M19.6507 48.4031
L19.4602 48.4031
" />
<path d="M19.4602 48.4031
L19.3650 48.3554
" />
<path d="M19.3650 48.3554
L19.3174 48.2602
" />
<path d="M19.3174 48.2602
L19.3174 47.8793
" />
<path d="M19.3174 47.8793
L19.3650 47.7840
" />
<path d="M19.3650 47.7840
L19.4602 47.7364
" />
<path d="M19.4602 47.7364
L19.6507 47.7364
" />
<path d="M19.6507 47.7364
L19.7460 47.7840
" />
<path d="M19.7460 47.7840
L19.7936 47.8793
" />
<path d="M19.7936 47.8793
L19.7936 47.9745
" />
<path d="M19.7936 47.9745
L19.3174 48.0697
" />
<path d="M20.2221 48.4031
L20.2221 47.7364
" />
<path d="M20.2221 47.9269
L20.2698 47.8316
" />
<path d="M20.2698 47.8316
L20.3174 47.7840
" />
<path d="M20.3174 47.7840
L20.4126 47.7364
" />
<path d="M20.4126 47.7364
L20.5079 47.7364
" />
<path d="M20.6031 48.4983
L21.3650 48.4983
" />
<path d="M21.5555 47.4983
L21.6031 47.4507
" />
<path d="M21.6031 47.4507
L21.6983 47.4031
" />
<path d="M21.6983 47.4031
L21.9364 47.4031
" />
<path d="M21.9364 47.4031
L22.0317 47.4507
" />
<path d="M22.0317 47.4507
L22.0793 47.4983
" />
<path d="M22.0793 47.4983
L22.1269 47.5935
" />
<path d="M22.1269 47.5935
L22.1269 47.6888
" />
<path d="M22.1269 47.6888
L22.0793 47.8316
" />
<path d="M22.0793 47.8316
L21.5079 48.4031
" />
<path d="M21.5079 48.4031
L22.1269 48.4031
" />
<path d="M22.9840 48.4031
L22.9840 47.4031
" />
<path d="M22.9840 48.3554
L22.8888 48.4031
" />
<path d="M22.8888 48.4031
L22.6983 48.4031
" />
<path d="M22.6983 48.4031
L22.6031 48.3554
" />
<path d="M22.6031 48.3554
L22.5555 48.3078
" />
<path d="M22.5555 48.3078
L22.5079 48.2126
" />
<path d="M22.5079 48.2126
L22.5079 47.9269
" />
<path d="M22.5079 47.9269
L22.5555 47.8316
" />
<path d="M22.5555 47.8316
L22.6031 47.7840
" />
<path d="M22.6031 47.7840
L22.6983 47.7364
" />
<path d="M22.6983 47.7364
L22.8888 47.7364
" />
<path d="M22.8888 47.7364
L22.9840 47.7840
" />
<path d="M23.9364 47.4031
L23.4602 47.4031
" />
<path d="M23.4602 47.4031
L23.4126 47.8793
" />
<path d="M23.4126 47.8793
L23.4602 47.8316
" />
<path d="M23.4602 47.8316
L23.5555 47.7840
" />
<path d="M23.5555 47.7840
L23.7936 47.7840
" />
<path d="M23.7936 47.7840
L23.8888 47.8316
" />
<path d="M23.8888 47.8316
L23.9364 47.8793
" />
<path d="M23.9364 47.8793
L23.9840 47.9745
" />
<path d="M23.9840 47.9745
L23.9840 48.2126
" />
<path d="M23.9840 48.2126
L23.9364 48.3078
" />
<path d="M23.9364 48.3078
L23.8888 48.3554
" />
<path d="M23.8888 48.3554
L23.7936 48.4031
" />
<path d="M23.7936 48.4031
L23.5555 48.4031
" />
<path d="M23.5555 48.4031
L23.4602 48.3554
" />
<path d="M23.4602 48.3554
L23.4126 48.3078
" />
<path d="M24.8412 47.7364
L24.8412 48.4031
" />
<path d="M24.6031 47.3554
L24.3650 48.0697
" />
<path d="M24.3650 48.0697
L24.9840 48.0697
" />
<path d="M25.1269 48.4983
L25.8888 48.4983
" />
<path d="M26.1269 48.4031
L26.1269 47.7364
" />
<path d="M26.1269 47.8316
L26.1745 47.7840
" />
<path d="M26.1745 47.7840
L26.2698 47.7364
" />
<path d="M26.2698 47.7364
L26.4126 47.7364
" />
<path d="M26.4126 47.7364
L26.5079 47.7840
" />
<path d="M26.5079 47.7840
L26.5555 47.8793
" />
<path d="M26.5555 47.8793
L26.5555 48.4031
" />
<path d="M26.5555 47.8793
L26.6031 47.7840
" />
<path d="M26.6031 47.7840
L26.6983 47.7364
" />
<path d="M26.6983 47.7364
L26.8412 47.7364
" />
<path d="M26.8412 47.7364
L26.9364 47.7840
" />
<path d="M26.9364 47.7840
L26.9840 47.8793
" />
<path d="M26.9840 47.8793
L26.9840 48.4031
" />
<path d="M27.4602 48.4031
L27.4602 47.7364
" />
<path d="M27.4602 47.8316
L27.5079 47.7840
" />
<path d="M27.5079 47.7840
L27.6031 47.7364
" />
<path d="M27.6031 47.7364
L27.7460 47.7364
" />
<path d="M27.7460 47.7364
L27.8412 47.7840
" />
<path d="M27.8412 47.7840
L27.8888 47.8793
" />
<path d="M27.8888 47.8793
L27.8888 48.4031
" />
<path d="M27.8888 47.8793
L27.9364 47.7840
" />
<path d="M27.9364 47.7840
L28.0317 47.7364
" />
<path d="M28.0317 47.7364
L28.1745 47.7364
" />
<path d="M28.1745 47.7364
L28.2698 47.7840
" />
<path d="M28.2698 47.7840
L28.3174 47.8793
" />
<path d="M28.3174 47.8793
L28.3174 48.4031
" />
<path d="M28.5555 48.4983
L29.3174 48.4983
" />
<path d="M29.9840 47.7364
L29.9840 48.4031
" />
<path d="M29.7460 47.3554
L29.5079 48.0697
" />
<path d="M29.5079 48.0697
L30.1269 48.0697
" />
<path d="M30.2698 48.4983
L31.0317 48.4983
" />
<path d="M31.2698 47.7364
L31.2698 48.7364
" />
<path d="M31.2698 47.7840
L31.3650 47.7364
" />
<path d="M31.3650 47.7364
L31.5555 47.7364
" />
<path d="M31.5555 47.7364
L31.6507 47.7840
" />
<path d="M31.6507 47.7840
L31.6983 47.8316
" />
<path d="M31.6983 47.8316
L31.7460 47.9269
" />
<path d="M31.7460 47.9269
L31.7460 48.2126
" />
<path d="M31.7460 48.2126
L31.6983 48.3078
" />
<path d="M31.6983 48.3078
L31.6507 48.3554
" />
<path d="M31.6507 48.3554
L31.5555 48.4031
" />
<path d="M31.5555 48.4031
L31.3650 48.4031
" />
<path d="M31.3650 48.4031
L31.2698 48.3554
" />
<path d="M32.1745 48.4031
L32.1745 47.7364
" />
<path d="M32.1745 47.4031
L32.1269 47.4507
" />
<path d="M32.1269 47.4507
L32.1745 47.4983
" />
<path d="M32.1745 47.4983
L32.2221 47.4507
" />
<path d="M32.2221 47.4507
L32.1745 47.4031
" />
<path d="M32.1745 47.4031
L32.1745 47.4983
" />
<path d="M32.6507 47.7364
L32.6507 48.4031
" />
<path d="M32.6507 47.8316
L32.6983 47.7840
" />
<path d="M32.6983 47.7840
L32.7936 47.7364
" />
<path d="M32.7936 47.7364
L32.9364 47.7364
" />
<path d="M32.9364 47.7364
L33.0317 47.7840
" />
<path d="M33.0317 47.7840
L33.0793 47.8793
" />
<path d="M33.0793 47.8793
L33.0793 48.4031
" />
</g><g transform="rotate(-90.000000 17.8650 41.8083)">
<text x="17.8650" y="42.3083"
textLength="1.9643" font-size="1.3333" lengthAdjust="spacingAndGlyphs"
text-anchor="middle" opacity="0">J1</text>
</g>
<g class="stroked-text"><desc>J1</desc>
<path d="M17.3198 42.1416
L18.0341 42.1416
" />
<path d="M18.0341 42.1416
L18.1770 42.1892
" />
<path d="M18.1770 42.1892
L18.2722 42.2844
" />
<path d="M18.2722 42.2844
L18.3198 42.4273
" />
<path d="M18.3198 42.4273
L18.3198 42.5225
" />
<path d="M18.3198 41.1416
L18.3198 41.7130
" />
<path d="M18.3198 41.4273
L17.3198 41.4273
" />
<path d="M17.3198 41.4273
L17.4627 41.5225
" />
<path d="M17.4627 41.5225
L17.5579 41.6178
" />
<path d="M17.5579 41.6178
L17.6055 41.7130
" />
</g><text x="36.6750" y="46.1482"
textLength="4.7738" font-size="1.3333" lengthAdjust="spacingAndGlyphs"
text-anchor="middle" opacity="0">mhm6</text>
<g class="stroked-text"><desc>mhm6</desc>
<path d="M34.6512 46.1031
L34.6512 45.4364
" />
<path d="M34.6512 45.5316
L34.6988 45.4840
" />
<path d="M34.6988 45.4840
L34.7940 45.4364
" />
<path d="M34.7940 45.4364
L34.9369 45.4364
" />
<path d="M34.9369 45.4364
L35.0321 45.4840
" />
<path d="M35.0321 45.4840
L35.0798 45.5793
" />
<path d="M35.0798 45.5793
L35.0798 46.1031
" />
<path d="M35.0798 45.5793
L35.1274 45.4840
" />
<path d="M35.1274 45.4840
L35.2226 45.4364
" />
<path d="M35.2226 45.4364
L35.3655 45.4364
" />
<path d="M35.3655 45.4364
L35.4607 45.4840
" />
<path d="M35.4607 45.4840
L35.5083 45.5793
" />
<path d="M35.5083 45.5793
L35.5083 46.1031
" />
<path d="M35.9845 46.1031
L35.9845 45.1031
" />
<path d="M36.4131 46.1031
L36.4131 45.5793
" />
<path d="M36.4131 45.5793
L36.3655 45.4840
" />
<path d="M36.3655 45.4840
L36.2702 45.4364
" />
<path d="M36.2702 45.4364
L36.1274 45.4364
" />
<path d="M36.1274 45.4364
L36.0321 45.4840
" />
<path d="M36.0321 45.4840
L35.9845 45.5316
" />
<path d="M36.8893 46.1031
L36.8893 45.4364
" />
<path d="M36.8893 45.5316
L36.9369 45.4840
" />
<path d="M36.9369 45.4840
L37.0321 45.4364
" />
<path d="M37.0321 45.4364
L37.1750 45.4364
" />
<path d="M37.1750 45.4364
L37.2702 45.4840
" />
<path d="M37.2702 45.4840
L37.3179 45.5793
" />
<path d="M37.3179 45.5793
L37.3179 46.1031
" />
<path d="M37.3179 45.5793
L37.3655 45.4840
" />
<path d="M37.3655 45.4840
L37.4607 45.4364
" />
<path d="M37.4607 45.4364
L37.6036 45.4364
" />
<path d="M37.6036 45.4364
L37.6988 45.4840
" />
<path d="M37.6988 45.4840
L37.7464 45.5793
" />
<path d="M37.7464 45.5793
L37.7464 46.1031
" />
<path d="M38.6512 45.1031
L38.4607 45.1031
" />
<path d="M38.4607 45.1031
L38.3655 45.1507
" />
<path d="M38.3655 45.1507
L38.3179 45.1983
" />
<path d="M38.3179 45.1983
L38.2226 45.3412
" />
<path d="M38.2226 45.3412
L38.1750 45.5316
" />
<path d="M38.1750 45.5316
L38.1750 45.9126
" />
<path d="M38.1750 45.9126
L38.2226 46.0078
" />
<path d="M38.2226 46.0078
L38.2702 46.0555
" />
<path d="M38.2702 46.0555
L38.3655 46.1031
" />
<path d="M38.3655 46.1031
L38.5560 46.1031
" />
<path d="M38.5560 46.1031
L38.6512 46.0555
" />
<path d="M38.6512 46.0555
L38.6988 46.0078
" />
<path d="M38.6988 46.0078
L38.7464 45.9126
" />
<path d="M38.7464 45.9126
L38.7464 45.6745
" />
<path d="M38.7464 45.6745
L38.6988 45.5793
" />
<path d="M38.6988 45.5793
L38.6512 45.5316
" />
<path d="M38.6512 45.5316
L38.5560 45.4840
" />
<path d="M38.5560 45.4840
L38.3655 45.4840
" />
<path d="M38.3655 45.4840
L38.2702 45.5316
" />
<path d="M38.2702 45.5316
L38.2226 45.5793
" />
<path d="M38.2226 45.5793
L38.1750 45.6745
" />
</g><text x="36.6750" y="38.7482"
textLength="2.2500" font-size="1.3333" lengthAdjust="spacingAndGlyphs"
text-anchor="middle" opacity="0">H9</text>
<g class="stroked-text"><desc>H9</desc>
<path d="M35.9131 38.7031
L35.9131 37.7031
" />
<path d="M35.9131 38.1793
L36.4845 38.1793
" />
<path d="M36.4845 38.7031
L36.4845 37.7031
" />
<path d="M37.0083 38.7031
L37.1988 38.7031
" />
<path d="M37.1988 38.7031
L37.2940 38.6554
" />
<path d="M37.2940 38.6554
L37.3417 38.6078
" />
<path d="M37.3417 38.6078
L37.4369 38.4650
" />
<path d="M37.4369 38.4650
L37.4845 38.2745
" />
<path d="M37.4845 38.2745
L37.4845 37.8935
" />
<path d="M37.4845 37.8935
L37.4369 37.7983
" />
<path d="M37.4369 37.7983
L37.3893 37.7507
" />
<path d="M37.3893 37.7507
L37.2940 37.7031
" />
<path d="M37.2940 37.7031
L37.1036 37.7031
" />
<path d="M37.1036 37.7031
L37.0083 37.7507
" />
<path d="M37.0083 37.7507
L36.9607 37.7983
" />
<path d="M36.9607 37.7983
L36.9131 37.8935
" />
<path d="M36.9131 37.8935
L36.9131 38.1316
" />
<path d="M36.9131 38.1316
L36.9607 38.2269
" />
<path d="M36.9607 38.2269
L37.0083 38.2745
" />
<path d="M37.0083 38.2745
L37.1036 38.3221
" />
<path d="M37.1036 38.3221
L37.2940 38.3221
" />
<path d="M37.2940 38.3221
L37.3893 38.2745
" />
<path d="M37.3893 38.2745
L37.4369 38.2269
" />
<path d="M37.4369 38.2269
L37.4845 38.1316
" />
</g><text x="21.6750" y="16.1483"
textLength="4.7738" font-size="1.3333" lengthAdjust="spacingAndGlyphs"
text-anchor="middle" opacity="0">mhm6</text>
<g class="stroked-text"><desc>mhm6</desc>
<path d="M19.6512 16.1031
L19.6512 15.4364
" />
<path d="M19.6512 15.5316
L19.6988 15.4840
" />
<path d="M19.6988 15.4840
L19.7940 15.4364
" />
<path d="M19.7940 15.4364
L19.9369 15.4364
" />
<path d="M19.9369 15.4364
L20.0321 15.4840
" />
<path d="M20.0321 15.4840
L20.0798 15.5793
" />
<path d="M20.0798 15.5793
L20.0798 16.1031
" />
<path d="M20.0798 15.5793
L20.1274 15.4840
" />
<path d="M20.1274 15.4840
L20.2226 15.4364
" />
<path d="M20.2226 15.4364
L20.3655 15.4364
" />
<path d="M20.3655 15.4364
L20.4607 15.4840
" />
<path d="M20.4607 15.4840
L20.5083 15.5793
" />
<path d="M20.5083 15.5793
L20.5083 16.1031
" />
<path d="M20.9845 16.1031
L20.9845 15.1031
" />
<path d="M21.4131 16.1031
L21.4131 15.5793
" />
<path d="M21.4131 15.5793
L21.3655 15.4840
" />
<path d="M21.3655 15.4840
L21.2702 15.4364
" />
<path d="M21.2702 15.4364
L21.1274 15.4364
" />
<path d="M21.1274 15.4364
L21.0321 15.4840
" />
<path d="M21.0321 15.4840
L20.9845 15.5316
" />
<path d="M21.8893 16.1031
L21.8893 15.4364
" />
<path d="M21.8893 15.5316
L21.9369 15.4840
" />
<path d="M21.9369 15.4840
L22.0321 15.4364
" />
<path d="M22.0321 15.4364
L22.1750 15.4364
" />
<path d="M22.1750 15.4364
L22.2702 15.4840
" />
<path d="M22.2702 15.4840
L22.3179 15.5793
" />
<path d="M22.3179 15.5793
L22.3179 16.1031
" />
<path d="M22.3179 15.5793
L22.3655 15.4840
" />
<path d="M22.3655 15.4840
L22.4607 15.4364
" />
<path d="M22.4607 15.4364
L22.6036 15.4364
" />
<path d="M22.6036 15.4364
L22.6988 15.4840
" />
<path d="M22.6988 15.4840
L22.7464 15.5793
" />
<path d="M22.7464 15.5793
L22.7464 16.1031
" />
<path d="M23.6512 15.1031
L23.4607 15.1031
" />
<path d="M23.4607 15.1031
L23.3655 15.1507
" />
<path d="M23.3655 15.1507
L23.3179 15.1983
" />
<path d="M23.3179 15.1983
L23.2226 15.3412
" />
<path d="M23.2226 15.3412
L23.1750 15.5316
" />
<path d="M23.1750 15.5316
L23.1750 15.9126
" />
<path d="M23.1750 15.9126
L23.2226 16.0078
" />
<path d="M23.2226 16.0078
L23.2702 16.0555
" />
<path d="M23.2702 16.0555
L23.3655 16.1031
" />
<path d="M23.3655 16.1031
L23.5560 16.1031
" />
<path d="M23.5560 16.1031
L23.6512 16.0555
" />
<path d="M23.6512 16.0555
L23.6988 16.0078
" />
<path d="M23.6988 16.0078
L23.7464 15.9126
" />
<path d="M23.7464 15.9126
L23.7464 15.6745
" />
<path d="M23.7464 15.6745
L23.6988 15.5793
" />
<path d="M23.6988 15.5793
L23.6512 15.5316
" />
<path d="M23.6512 15.5316
L23.5560 15.4840
" />
<path d="M23.5560 15.4840
L23.3655 15.4840
" />
<path d="M23.3655 15.4840
L23.2702 15.5316
" />
<path d="M23.2702 15.5316
L23.2226 15.5793
" />
<path d="M23.2226 15.5793
L23.1750 15.6745
" />
</g><text x="21.6750" y="8.7482"
textLength="2.2500" font-size="1.3333" lengthAdjust="spacingAndGlyphs"
text-anchor="middle" opacity="0">H3</text>
<g class="stroked-text"><desc>H3</desc>
<path d="M20.9131 8.7031
L20.9131 7.7031
" />
<path d="M20.9131 8.1793
L21.4845 8.1793
" />
<path d="M21.4845 8.7031
L21.4845 7.7031
" />
<path d="M21.8655 7.7031
L22.4845 7.7031
" />
<path d="M22.4845 7.7031
L22.1512 8.0840
" />
<path d="M22.1512 8.0840
L22.2940 8.0840
" />
<path d="M22.2940 8.0840
L22.3893 8.1316
" />
<path d="M22.3893 8.1316
L22.4369 8.1793
" />
<path d="M22.4369 8.1793
L22.4845 8.2745
" />
<path d="M22.4845 8.2745
L22.4845 8.5126
" />
<path d="M22.4845 8.5126
L22.4369 8.6078
" />
<path d="M22.4369 8.6078
L22.3893 8.6555
" />
<path d="M22.3893 8.6555
L22.2940 8.7031
" />
<path d="M22.2940 8.7031
L22.0083 8.7031
" />
<path d="M22.0083 8.7031
L21.9131 8.6555
" />
<path d="M21.9131 8.6555
L21.8655 8.6078
" />
</g><text x="36.6750" y="16.1483"
textLength="4.7738" font-size="1.3333" lengthAdjust="spacingAndGlyphs"
text-anchor="middle" opacity="0">mhm6</text>
<g class="stroked-text"><desc>mhm6</desc>
<path d="M34.6512 16.1031
L34.6512 15.4364
" />
<path d="M34.6512 15.5316
L34.6988 15.4840
" />
<path d="M34.6988 15.4840
L34.7940 15.4364
" />
<path d="M34.7940 15.4364
L34.9369 15.4364
" />
<path d="M34.9369 15.4364
L35.0321 15.4840
" />
<path d="M35.0321 15.4840
L35.0798 15.5793
" />
<path d="M35.0798 15.5793
L35.0798 16.1031
" />
<path d="M35.0798 15.5793
L35.1274 15.4840
" />
<path d="M35.1274 15.4840
L35.2226 15.4364
" />
<path d="M35.2226 15.4364
L35.3655 15.4364
" />
<path d="M35.3655 15.4364
L35.4607 15.4840
" />
<path d="M35.4607 15.4840
L35.5083 15.5793
" />
<path d="M35.5083 15.5793
L35.5083 16.1031
" />
<path d="M35.9845 16.1031
L35.9845 15.1031
" />
<path d="M36.4131 16.1031
L36.4131 15.5793
" />
<path d="M36.4131 15.5793
L36.3655 15.4840
" />
<path d="M36.3655 15.4840
L36.2702 15.4364
" />
<path d="M36.2702 15.4364
L36.1274 15.4364
" />
<path d="M36.1274 15.4364
L36.0321 15.4840
" />
<path d="M36.0321 15.4840
L35.9845 15.5316
" />
<path d="M36.8893 16.1031
L36.8893 15.4364
" />
<path d="M36.8893 15.5316
L36.9369 15.4840
" />
<path d="M36.9369 15.4840
L37.0321 15.4364
" />
<path d="M37.0321 15.4364
L37.1750 15.4364
" />
<path d="M37.1750 15.4364
L37.2702 15.4840
" />
<path d="M37.2702 15.4840
L37.3179 15.5793
" />
<path d="M37.3179 15.5793
L37.3179 16.1031
" />
<path d="M37.3179 15.5793
L37.3655 15.4840
" />
<path d="M37.3655 15.4840
L37.4607 15.4364
" />
<path d="M37.4607 15.4364
L37.6036 15.4364
" />
<path d="M37.6036 15.4364
L37.6988 15.4840
" />
<path d="M37.6988 15.4840
L37.7464 15.5793
" />
<path d="M37.7464 15.5793
L37.7464 16.1031
" />
<path d="M38.6512 15.1031
L38.4607 15.1031
" />
<path d="M38.4607 15.1031
L38.3655 15.1507
" />
<path d="M38.3655 15.1507
L38.3179 15.1983
" />
<path d="M38.3179 15.1983
L38.2226 15.3412
" />
<path d="M38.2226 15.3412
L38.1750 15.5316
" />
<path d="M38.1750 15.5316
L38.1750 15.9126
" />
<path d="M38.1750 15.9126
L38.2226 16.0078
" />
<path d="M38.2226 16.0078
L38.2702 16.0555
" />
<path d="M38.2702 16.0555
L38.3655 16.1031
" />
<path d="M38.3655 16.1031
L38.5560 16.1031
" />
<path d="M38.5560 16.1031
L38.6512 16.0555
" />
<path d="M38.6512 16.0555
L38.6988 16.0078
" />
<path d="M38.6988 16.0078
L38.7464 15.9126
" />
<path d="M38.7464 15.9126
L38.7464 15.6745
" />
<path d="M38.7464 15.6745
L38.6988 15.5793
" />
<path d="M38.6988 15.5793
L38.6512 15.5316
" />
<path d="M38.6512 15.5316
L38.5560 15.4840
" />
<path d="M38.5560 15.4840
L38.3655 15.4840
" />
<path d="M38.3655 15.4840
L38.2702 15.5316
" />
<path d="M38.2702 15.5316
L38.2226 15.5793
" />
<path d="M38.2226 15.5793
L38.1750 15.6745
" />
</g><text x="36.6750" y="8.7482"
textLength="2.2500" font-size="1.3333" lengthAdjust="spacingAndGlyphs"
text-anchor="middle" opacity="0">H5</text>
<g class="stroked-text"><desc>H5</desc>
<path d="M35.9131 8.7031
L35.9131 7.7031
" />
<path d="M35.9131 8.1793
L36.4845 8.1793
" />
<path d="M36.4845 8.7031
L36.4845 7.7031
" />
<path d="M37.4369 7.7031
L36.9607 7.7031
" />
<path d="M36.9607 7.7031
L36.9131 8.1793
" />
<path d="M36.9131 8.1793
L36.9607 8.1316
" />
<path d="M36.9607 8.1316
L37.0560 8.0840
" />
<path d="M37.0560 8.0840
L37.2940 8.0840
" />
<path d="M37.2940 8.0840
L37.3893 8.1316
" />
<path d="M37.3893 8.1316
L37.4369 8.1793
" />
<path d="M37.4369 8.1793
L37.4845 8.2745
" />
<path d="M37.4845 8.2745
L37.4845 8.5126
" />
<path d="M37.4845 8.5126
L37.4369 8.6078
" />
<path d="M37.4369 8.6078
L37.3893 8.6555
" />
<path d="M37.3893 8.6555
L37.2940 8.7031
" />
<path d="M37.2940 8.7031
L37.0560 8.7031
" />
<path d="M37.0560 8.7031
L36.9607 8.6555
" />
<path d="M36.9607 8.6555
L36.9131 8.6078
" />
</g><text x="29.1750" y="42.9483"
textLength="4.7738" font-size="1.3333" lengthAdjust="spacingAndGlyphs"
text-anchor="middle" opacity="0">mhm3</text>
<g class="stroked-text"><desc>mhm3</desc>
<path d="M27.1512 42.9031
L27.1512 42.2364
" />
<path d="M27.1512 42.3316
L27.1988 42.2840
" />
<path d="M27.1988 42.2840
L27.2940 42.2364
" />
<path d="M27.2940 42.2364
L27.4369 42.2364
" />
<path d="M27.4369 42.2364
L27.5321 42.2840
" />
<path d="M27.5321 42.2840
L27.5798 42.3793
" />
<path d="M27.5798 42.3793
L27.5798 42.9031
" />
<path d="M27.5798 42.3793
L27.6274 42.2840
" />
<path d="M27.6274 42.2840
L27.7226 42.2364
" />
<path d="M27.7226 42.2364
L27.8655 42.2364
" />
<path d="M27.8655 42.2364
L27.9607 42.2840
" />
<path d="M27.9607 42.2840
L28.0083 42.3793
" />
<path d="M28.0083 42.3793
L28.0083 42.9031
" />
<path d="M28.4845 42.9031
L28.4845 41.9031
" />
<path d="M28.9131 42.9031
L28.9131 42.3793
" />
<path d="M28.9131 42.3793
L28.8655 42.2840
" />
<path d="M28.8655 42.2840
L28.7702 42.2364
" />
<path d="M28.7702 42.2364
L28.6274 42.2364
" />
<path d="M28.6274 42.2364
L28.5321 42.2840
" />
<path d="M28.5321 42.2840
L28.4845 42.3316
" />
<path d="M29.3893 42.9031
L29.3893 42.2364
" />
<path d="M29.3893 42.3316
L29.4369 42.2840
" />
<path d="M29.4369 42.2840
L29.5321 42.2364
" />
<path d="M29.5321 42.2364
L29.6750 42.2364
" />
<path d="M29.6750 42.2364
L29.7702 42.2840
" />
<path d="M29.7702 42.2840
L29.8179 42.3793
" />
<path d="M29.8179 42.3793
L29.8179 42.9031
" />
<path d="M29.8179 42.3793
L29.8655 42.2840
" />
<path d="M29.8655 42.2840
L29.9607 42.2364
" />
<path d="M29.9607 42.2364
L30.1036 42.2364
" />
<path d="M30.1036 42.2364
L30.1988 42.2840
" />
<path d="M30.1988 42.2840
L30.2464 42.3793
" />
<path d="M30.2464 42.3793
L30.2464 42.9031
" />
<path d="M30.6274 41.9031
L31.2464 41.9031
" />
<path d="M31.2464 41.9031
L30.9131 42.2840
" />
<path d="M30.9131 42.2840
L31.0560 42.2840
" />
<path d="M31.0560 42.2840
L31.1512 42.3316
" />
<path d="M31.1512 42.3316
L31.1988 42.3793
" />
<path d="M31.1988 42.3793
L31.2464 42.4745
" />
<path d="M31.2464 42.4745
L31.2464 42.7126
" />
<path d="M31.2464 42.7126
L31.1988 42.8078
" />
<path d="M31.1988 42.8078
L31.1512 42.8554
" />
<path d="M31.1512 42.8554
L31.0560 42.9031
" />
<path d="M31.0560 42.9031
L30.7702 42.9031
" />
<path d="M30.7702 42.9031
L30.6750 42.8554
" />
<path d="M30.6750 42.8554
L30.6274 42.8078
" />
</g><text x="29.1750" y="38.7482"
textLength="2.2500" font-size="1.3333" lengthAdjust="spacingAndGlyphs"
text-anchor="middle" opacity="0">H8</text>
<g class="stroked-text"><desc>H8</desc>
<path d="M28.4131 38.7031
L28.4131 37.7031
" />
<path d="M28.4131 38.1793
L28.9845 38.1793
" />
<path d="M28.9845 38.7031
L28.9845 37.7031
" />
<path d="M29.6036 38.1316
L29.5083 38.0840
" />
<path d="M29.5083 38.0840
L29.4607 38.0364
" />
<path d="M29.4607 38.0364
L29.4131 37.9412
" />
<path d="M29.4131 37.9412
L29.4131 37.8935
" />
<path d="M29.4131 37.8935
L29.4607 37.7983
" />
<path d="M29.4607 37.7983
L29.5083 37.7507
" />
<path d="M29.5083 37.7507
L29.6036 37.7031
" />
<path d="M29.6036 37.7031
L29.7940 37.7031
" />
<path d="M29.7940 37.7031
L29.8893 37.7507
" />
<path d="M29.8893 37.7507
L29.9369 37.7983
" />
<path d="M29.9369 37.7983
L29.9845 37.8935
" />
<path d="M29.9845 37.8935
L29.9845 37.9412
" />
<path d="M29.9845 37.9412
L29.9369 38.0364
" />
<path d="M29.9369 38.0364
L29.8893 38.0840
" />
<path d="M29.8893 38.0840
L29.7940 38.1316
" />
<path d="M29.7940 38.1316
L29.6036 38.1316
" />
<path d="M29.6036 38.1316
L29.5083 38.1793
" />
<path d="M29.5083 38.1793
L29.4607 38.2269
" />
<path d="M29.4607 38.2269
L29.4131 38.3221
" />
<path d="M29.4131 38.3221
L29.4131 38.5126
" />
<path d="M29.4131 38.5126
L29.4607 38.6078
" />
<path d="M29.4607 38.6078
L29.5083 38.6554
" />
<path d="M29.5083 38.6554
L29.6036 38.7031
" />
<path d="M29.6036 38.7031
L29.7940 38.7031
" />
<path d="M29.7940 38.7031
L29.8893 38.6554
" />
<path d="M29.8893 38.6554
L29.9369 38.6078
" />
<path d="M29.9369 38.6078
L29.9845 38.5126
" />
<path d="M29.9845 38.5126
L29.9845 38.3221
" />
<path d="M29.9845 38.3221
L29.9369 38.2269
" />
<path d="M29.9369 38.2269
L29.8893 38.1793
" />
<path d="M29.8893 38.1793
L29.7940 38.1316
" />
</g><text x="6.6750" y="16.1483"
textLength="4.7738" font-size="1.3333" lengthAdjust="spacingAndGlyphs"
text-anchor="middle" opacity="0">mhm6</text>
<g class="stroked-text"><desc>mhm6</desc>
<path d="M4.6512 16.1031
L4.6512 15.4364
" />
<path d="M4.6512 15.5316
L4.6988 15.4840
" />
<path d="M4.6988 15.4840
L4.7940 15.4364
" />
<path d="M4.7940 15.4364
L4.9369 15.4364
" />
<path d="M4.9369 15.4364
L5.0321 15.4840
" />
<path d="M5.0321 15.4840
L5.0798 15.5793
" />
<path d="M5.0798 15.5793
L5.0798 16.1031
" />
<path d="M5.0798 15.5793
L5.1274 15.4840
" />
<path d="M5.1274 15.4840
L5.2226 15.4364
" />
<path d="M5.2226 15.4364
L5.3655 15.4364
" />
<path d="M5.3655 15.4364
L5.4607 15.4840
" />
<path d="M5.4607 15.4840
L5.5083 15.5793
" />
<path d="M5.5083 15.5793
L5.5083 16.1031
" />
<path d="M5.9845 16.1031
L5.9845 15.1031
" />
<path d="M6.4131 16.1031
L6.4131 15.5793
" />
<path d="M6.4131 15.5793
L6.3655 15.4840
" />
<path d="M6.3655 15.4840
L6.2702 15.4364
" />
<path d="M6.2702 15.4364
L6.1274 15.4364
" />
<path d="M6.1274 15.4364
L6.0321 15.4840
" />
<path d="M6.0321 15.4840
L5.9845 15.5316
" />
<path d="M6.8893 16.1031
L6.8893 15.4364
" />
<path d="M6.8893 15.5316
L6.9369 15.4840
" />
<path d="M6.9369 15.4840
L7.0321 15.4364
" />
<path d="M7.0321 15.4364
L7.1750 15.4364
" />
<path d="M7.1750 15.4364
L7.2702 15.4840
" />
<path d="M7.2702 15.4840
L7.3179 15.5793
" />
<path d="M7.3179 15.5793
L7.3179 16.1031
" />
<path d="M7.3179 15.5793
L7.3655 15.4840
" />
<path d="M7.3655 15.4840
L7.4607 15.4364
" />
<path d="M7.4607 15.4364
L7.6036 15.4364
" />
<path d="M7.6036 15.4364
L7.6988 15.4840
" />
<path d="M7.6988 15.4840
L7.7464 15.5793
" />
<path d="M7.7464 15.5793
L7.7464 16.1031
" />
<path d="M8.6512 15.1031
L8.4607 15.1031
" />
<path d="M8.4607 15.1031
L8.3655 15.1507
" />
<path d="M8.3655 15.1507
L8.3179 15.1983
" />
<path d="M8.3179 15.1983
L8.2226 15.3412
" />
<path d="M8.2226 15.3412
L8.1750 15.5316
" />
<path d="M8.1750 15.5316
L8.1750 15.9126
" />
<path d="M8.1750 15.9126
L8.2226 16.0078
" />
<path d="M8.2226 16.0078
L8.2702 16.0555
" />
<path d="M8.2702 16.0555
L8.3655 16.1031
" />
<path d="M8.3655 16.1031
L8.5560 16.1031
" />
<path d="M8.5560 16.1031
L8.6512 16.0555
" />
<path d="M8.6512 16.0555
L8.6988 16.0078
" />
<path d="M8.6988 16.0078
L8.7464 15.9126
" />
<path d="M8.7464 15.9126
L8.7464 15.6745
" />
<path d="M8.7464 15.6745
L8.6988 15.5793
" />
<path d="M8.6988 15.5793
L8.6512 15.5316
" />
<path d="M8.6512 15.5316
L8.5560 15.4840
" />
<path d="M8.5560 15.4840
L8.3655 15.4840
" />
<path d="M8.3655 15.4840
L8.2702 15.5316
" />
<path d="M8.2702 15.5316
L8.2226 15.5793
" />
<path d="M8.2226 15.5793
L8.1750 15.6745
" />
</g><text x="6.6750" y="8.7482"
textLength="2.2500" font-size="1.3333" lengthAdjust="spacingAndGlyphs"
text-anchor="middle" opacity="0">H1</text>
<g class="stroked-text"><desc>H1</desc>
<path d="M5.9131 8.7031
L5.9131 7.7031
" />
<path d="M5.9131 8.1793
L6.4845 8.1793
" />
<path d="M6.4845 8.7031
L6.4845 7.7031
" />
<path d="M7.4845 8.7031
L6.9131 8.7031
" />
<path d="M7.1988 8.7031
L7.1988 7.7031
" />
<path d="M7.1988 7.7031
L7.1036 7.8459
" />
<path d="M7.1036 7.8459
L7.0083 7.9412
" />
<path d="M7.0083 7.9412
L6.9131 7.9888
" />
</g><text x="14.1750" y="42.9483"
textLength="4.7738" font-size="1.3333" lengthAdjust="spacingAndGlyphs"
text-anchor="middle" opacity="0">mhm3</text>
<g class="stroked-text"><desc>mhm3</desc>
<path d="M12.1512 42.9031
L12.1512 42.2364
" />
<path d="M12.1512 42.3316
L12.1988 42.2840
" />
<path d="M12.1988 42.2840
L12.2940 42.2364
" />
<path d="M12.2940 42.2364
L12.4369 42.2364
" />
<path d="M12.4369 42.2364
L12.5321 42.2840
" />
<path d="M12.5321 42.2840
L12.5798 42.3793
" />
<path d="M12.5798 42.3793
L12.5798 42.9031
" />
<path d="M12.5798 42.3793
L12.6274 42.2840
" />
<path d="M12.6274 42.2840
L12.7226 42.2364
" />
<path d="M12.7226 42.2364
L12.8655 42.2364
" />
<path d="M12.8655 42.2364
L12.9607 42.2840
" />
<path d="M12.9607 42.2840
L13.0083 42.3793
" />
<path d="M13.0083 42.3793
L13.0083 42.9031
" />
<path d="M13.4845 42.9031
L13.4845 41.9031
" />
<path d="M13.9131 42.9031
L13.9131 42.3793
" />
<path d="M13.9131 42.3793
L13.8655 42.2840
" />
<path d="M13.8655 42.2840
L13.7702 42.2364
" />
<path d="M13.7702 42.2364
L13.6274 42.2364
" />
<path d="M13.6274 42.2364
L13.5321 42.2840
" />
<path d="M13.5321 42.2840
L13.4845 42.3316
" />
<path d="M14.3893 42.9031
L14.3893 42.2364
" />
<path d="M14.3893 42.3316
L14.4369 42.2840
" />
<path d="M14.4369 42.2840
L14.5321 42.2364
" />
<path d="M14.5321 42.2364
L14.6750 42.2364
" />
<path d="M14.6750 42.2364
L14.7702 42.2840
" />
<path d="M14.7702 42.2840
L14.8179 42.3793
" />
<path d="M14.8179 42.3793
L14.8179 42.9031
" />
<path d="M14.8179 42.3793
L14.8655 42.2840
" />
<path d="M14.8655 42.2840
L14.9607 42.2364
" />
<path d="M14.9607 42.2364
L15.1036 42.2364
" />
<path d="M15.1036 42.2364
L15.1988 42.2840
" />
<path d="M15.1988 42.2840
L15.2464 42.3793
" />
<path d="M15.2464 42.3793
L15.2464 42.9031
" />
<path d="M15.6274 41.9031
L16.2464 41.9031
" />
<path d="M16.2464 41.9031
L15.9131 42.2840
" />
<path d="M15.9131 42.2840
L16.0560 42.2840
" />
<path d="M16.0560 42.2840
L16.1512 42.3316
" />
<path d="M16.1512 42.3316
L16.1988 42.3793
" />
<path d="M16.1988 42.3793
L16.2464 42.4745
" />
<path d="M16.2464 42.4745
L16.2464 42.7126
" />
<path d="M16.2464 42.7126
L16.1988 42.8078
" />
<path d="M16.1988 42.8078
L16.1512 42.8554
" />
<path d="M16.1512 42.8554
L16.0560 42.9031
" />
<path d="M16.0560 42.9031
L15.7702 42.9031
" />
<path d="M15.7702 42.9031
L15.6750 42.8554
" />
<path d="M15.6750 42.8554
L15.6274 42.8078
" />
</g><text x="14.1750" y="38.7482"
textLength="2.2500" font-size="1.3333" lengthAdjust="spacingAndGlyphs"
text-anchor="middle" opacity="0">H7</text>
<g class="stroked-text"><desc>H7</desc>
<path d="M13.4131 38.7031
L13.4131 37.7031
" />
<path d="M13.4131 38.1793
L13.9845 38.1793
" />
<path d="M13.9845 38.7031
L13.9845 37.7031
" />
<path d="M14.3655 37.7031
L15.0321 37.7031
" />
<path d="M15.0321 37.7031
L14.6036 38.7031
" />
</g><text x="29.1750" y="12.9482"
textLength="4.7738" font-size="1.3333" lengthAdjust="spacingAndGlyphs"
text-anchor="middle" opacity="0">mhm3</text>
<g class="stroked-text"><desc>mhm3</desc>
<path d="M27.1512 12.9031
L27.1512 12.2364
" />
<path d="M27.1512 12.3316
L27.1988 12.2840
" />
<path d="M27.1988 12.2840
L27.2940 12.2364
" />
<path d="M27.2940 12.2364
L27.4369 12.2364
" />
<path d="M27.4369 12.2364
L27.5321 12.2840
" />
<path d="M27.5321 12.2840
L27.5798 12.3793
" />
<path d="M27.5798 12.3793
L27.5798 12.9031
" />
<path d="M27.5798 12.3793
L27.6274 12.2840
" />
<path d="M27.6274 12.2840
L27.7226 12.2364
" />
<path d="M27.7226 12.2364
L27.8655 12.2364
" />
<path d="M27.8655 12.2364
L27.9607 12.2840
" />
<path d="M27.9607 12.2840
L28.0083 12.3793
" />
<path d="M28.0083 12.3793
L28.0083 12.9031
" />
<path d="M28.4845 12.9031
L28.4845 11.9031
" />
<path d="M28.9131 12.9031
L28.9131 12.3793
" />
<path d="M28.9131 12.3793
L28.8655 12.2840
" />
<path d="M28.8655 12.2840
L28.7702 12.2364
" />
<path d="M28.7702 12.2364
L28.6274 12.2364
" />
<path d="M28.6274 12.2364
L28.5321 12.2840
" />
<path d="M28.5321 12.2840
L28.4845 12.3316
" />
<path d="M29.3893 12.9031
L29.3893 12.2364
" />
<path d="M29.3893 12.3316
L29.4369 12.2840
" />
<path d="M29.4369 12.2840
L29.5321 12.2364
" />
<path d="M29.5321 12.2364
L29.6750 12.2364
" />
<path d="M29.6750 12.2364
L29.7702 12.2840
" />
<path d="M29.7702 12.2840
L29.8179 12.3793
" />
<path d="M29.8179 12.3793
L29.8179 12.9031
" />
<path d="M29.8179 12.3793
L29.8655 12.2840
" />
<path d="M29.8655 12.2840
L29.9607 12.2364
" />
<path d="M29.9607 12.2364
L30.1036 12.2364
" />
<path d="M30.1036 12.2364
L30.1988 12.2840
" />
<path d="M30.1988 12.2840
L30.2464 12.3793
" />
<path d="M30.2464 12.3793
L30.2464 12.9031
" />
<path d="M30.6274 11.9031
L31.2464 11.9031
" />
<path d="M31.2464 11.9031
L30.9131 12.2840
" />
<path d="M30.9131 12.2840
L31.0560 12.2840
" />
<path d="M31.0560 12.2840
L31.1512 12.3316
" />
<path d="M31.1512 12.3316
L31.1988 12.3793
" />
<path d="M31.1988 12.3793
L31.2464 12.4745
" />
<path d="M31.2464 12.4745
L31.2464 12.7126
" />
<path d="M31.2464 12.7126
L31.1988 12.8078
" />
<path d="M31.1988 12.8078
L31.1512 12.8554
" />
<path d="M31.1512 12.8554
L31.0560 12.9031
" />
<path d="M31.0560 12.9031
L30.7702 12.9031
" />
<path d="M30.7702 12.9031
L30.6750 12.8554
" />
<path d="M30.6750 12.8554
L30.6274 12.8078
" />
</g><text x="29.1750" y="8.7482"
textLength="2.2500" font-size="1.3333" lengthAdjust="spacingAndGlyphs"
text-anchor="middle" opacity="0">H4</text>
<g class="stroked-text"><desc>H4</desc>
<path d="M28.4131 8.7031
L28.4131 7.7031
" />
<path d="M28.4131 8.1793
L28.9845 8.1793
" />
<path d="M28.9845 8.7031
L28.9845 7.7031
" />
<path d="M29.8893 8.0364
L29.8893 8.7031
" />
<path d="M29.6512 7.6555
L29.4131 8.3697
" />
<path d="M29.4131 8.3697
L30.0321 8.3697
" />
</g><text x="6.6750" y="46.1482"
textLength="4.7738" font-size="1.3333" lengthAdjust="spacingAndGlyphs"
text-anchor="middle" opacity="0">mhm6</text>
<g class="stroked-text"><desc>mhm6</desc>
<path d="M4.6512 46.1031
L4.6512 45.4364
" />
<path d="M4.6512 45.5316
L4.6988 45.4840
" />
<path d="M4.6988 45.4840
L4.7940 45.4364
" />
<path d="M4.7940 45.4364
L4.9369 45.4364
" />
<path d="M4.9369 45.4364
L5.0321 45.4840
" />
<path d="M5.0321 45.4840
L5.0798 45.5793
" />
<path d="M5.0798 45.5793
L5.0798 46.1031
" />
<path d="M5.0798 45.5793
L5.1274 45.4840
" />
<path d="M5.1274 45.4840
L5.2226 45.4364
" />
<path d="M5.2226 45.4364
L5.3655 45.4364
" />
<path d="M5.3655 45.4364
L5.4607 45.4840
" />
<path d="M5.4607 45.4840
L5.5083 45.5793
" />
<path d="M5.5083 45.5793
L5.5083 46.1031
" />
<path d="M5.9845 46.1031
L5.9845 45.1031
" />
<path d="M6.4131 46.1031
L6.4131 45.5793
" />
<path d="M6.4131 45.5793
L6.3655 45.4840
" />
<path d="M6.3655 45.4840
L6.2702 45.4364
" />
<path d="M6.2702 45.4364
L6.1274 45.4364
" />
<path d="M6.1274 45.4364
L6.0321 45.4840
" />
<path d="M6.0321 45.4840
L5.9845 45.5316
" />
<path d="M6.8893 46.1031
L6.8893 45.4364
" />
<path d="M6.8893 45.5316
L6.9369 45.4840
" />
<path d="M6.9369 45.4840
L7.0321 45.4364
" />
<path d="M7.0321 45.4364
L7.1750 45.4364
" />
<path d="M7.1750 45.4364
L7.2702 45.4840
" />
<path d="M7.2702 45.4840
L7.3179 45.5793
" />
<path d="M7.3179 45.5793
L7.3179 46.1031
" />
<path d="M7.3179 45.5793
L7.3655 45.4840
" />
<path d="M7.3655 45.4840
L7.4607 45.4364
" />
<path d="M7.4607 45.4364
L7.6036 45.4364
" />
<path d="M7.6036 45.4364
L7.6988 45.4840
" />
<path d="M7.6988 45.4840
L7.7464 45.5793
" />
<path d="M7.7464 45.5793
L7.7464 46.1031
" />
<path d="M8.6512 45.1031
L8.4607 45.1031
" />
<path d="M8.4607 45.1031
L8.3655 45.1507
" />
<path d="M8.3655 45.1507
L8.3179 45.1983
" />
<path d="M8.3179 45.1983
L8.2226 45.3412
" />
<path d="M8.2226 45.3412
L8.1750 45.5316
" />
<path d="M8.1750 45.5316
L8.1750 45.9126
" />
<path d="M8.1750 45.9126
L8.2226 46.0078
" />
<path d="M8.2226 46.0078
L8.2702 46.0555
" />
<path d="M8.2702 46.0555
L8.3655 46.1031
" />
<path d="M8.3655 46.1031
L8.5560 46.1031
" />
<path d="M8.5560 46.1031
L8.6512 46.0555
" />
<path d="M8.6512 46.0555
L8.6988 46.0078
" />
<path d="M8.6988 46.0078
L8.7464 45.9126
" />
<path d="M8.7464 45.9126
L8.7464 45.6745
" />
<path d="M8.7464 45.6745
L8.6988 45.5793
" />
<path d="M8.6988 45.5793
L8.6512 45.5316
" />
<path d="M8.6512 45.5316
L8.5560 45.4840
" />
<path d="M8.5560 45.4840
L8.3655 45.4840
" />
<path d="M8.3655 45.4840
L8.2702 45.5316
" />
<path d="M8.2702 45.5316
L8.2226 45.5793
" />
<path d="M8.2226 45.5793
L8.1750 45.6745
" />
</g><text x="6.6750" y="38.7482"
textLength="2.2500" font-size="1.3333" lengthAdjust="spacingAndGlyphs"
text-anchor="middle" opacity="0">H6</text>
<g class="stroked-text"><desc>H6</desc>
<path d="M5.9131 38.7031
L5.9131 37.7031
" />
<path d="M5.9131 38.1793
L6.4845 38.1793
" />
<path d="M6.4845 38.7031
L6.4845 37.7031
" />
<path d="M7.3893 37.7031
L7.1988 37.7031
" />
<path d="M7.1988 37.7031
L7.1036 37.7507
" />
<path d="M7.1036 37.7507
L7.0560 37.7983
" />
<path d="M7.0560 37.7983
L6.9607 37.9412
" />
<path d="M6.9607 37.9412
L6.9131 38.1316
" />
<path d="M6.9131 38.1316
L6.9131 38.5126
" />
<path d="M6.9131 38.5126
L6.9607 38.6078
" />
<path d="M6.9607 38.6078
L7.0083 38.6554
" />
<path d="M7.0083 38.6554
L7.1036 38.7031
" />
<path d="M7.1036 38.7031
L7.2940 38.7031
" />
<path d="M7.2940 38.7031
L7.3893 38.6554
" />
<path d="M7.3893 38.6554
L7.4369 38.6078
" />
<path d="M7.4369 38.6078
L7.4845 38.5126
" />
<path d="M7.4845 38.5126
L7.4845 38.2745
" />
<path d="M7.4845 38.2745
L7.4369 38.1793
" />
<path d="M7.4369 38.1793
L7.3893 38.1316
" />
<path d="M7.3893 38.1316
L7.2940 38.0840
" />
<path d="M7.2940 38.0840
L7.1036 38.0840
" />
<path d="M7.1036 38.0840
L7.0083 38.1316
" />
<path d="M7.0083 38.1316
L6.9607 38.1793
" />
<path d="M6.9607 38.1793
L6.9131 38.2745
" />
</g></g>
<g style="fill:#AFAFAF; fill-opacity:0.0; 
stroke:#AFAFAF; stroke-width:0.1000; stroke-opacity:1; 
stroke-linecap:round; stroke-linejoin:round;">
<path d="M16.5950 37.3633
L17.2300 36.7282
" />
<path d="M16.5950 46.8882
L16.5950 37.3633
" />
<path d="M17.2300 36.7282
L19.1350 36.7282
" />
<path d="M19.1350 36.7282
L19.1350 46.8882
" />
<path d="M19.1350 46.8882
L16.5950 46.8882
" />
<g >
</g>
<g >
</g>
<g >
</g>
<g >
</g>
<g >
</g>
<g >
</g>
<g >
</g>
<g >
</g>
<g >
</g>
<g >
</g>
<g >
</g>
<g >
</g>
<g >
</g>
</g>
<g style="fill:#000000; fill-opacity:0.0; 
stroke:#000000; stroke-width:0.1000; stroke-opacity:1; 
stroke-linecap:round; stroke-linejoin:round;">
<g >
</g>
<g >
</g>
<g >
</g>
<g >
</g>
<g >
</g>
<g >
</g>
<g >
</g>
<g >
</g>
<g >
</g>
<g >
</g>
<g >
</g>
<g >
</g>
<g >
</g>
</g>
<g style="fill:#000000; fill-opacity:0.0; 
stroke:#000000; stroke-width:0.1000; stroke-opacity:1; 
stroke-linecap:round; stroke-linejoin:round;">
</g>
<g style="fill:#5994DC; fill-opacity:0.0; 
stroke:#5994DC; stroke-width:0.1000; stroke-opacity:1; 
stroke-linecap:round; stroke-linejoin:round;">
</g>
<g style="fill:#5994DC; fill-opacity:0.0; 
stroke:#5994DC; stroke-width:0.1500; stroke-opacity:1; 
stroke-linecap:round; stroke-linejoin:round;">
<circle cx="14.1750" cy="8.2482" r="3.2000" /> 
<circle cx="36.6750" cy="38.2482" r="6.4000" /> 
<circle cx="21.6750" cy="8.2482" r="6.4000" /> 
<circle cx="36.6750" cy="8.2482" r="6.4000" /> 
<circle cx="29.1750" cy="38.2482" r="3.2000" /> 
<circle cx="6.6750" cy="8.2482" r="6.4000" /> 
<circle cx="14.1750" cy="38.2482" r="3.2000" /> 
<circle cx="29.1750" cy="8.2482" r="3.2000" /> 
<circle cx="6.6750" cy="38.2482" r="6.4000" /> 
<g >
</g>
<g >
</g>
<g >
</g>
<g >
</g>
<g >
</g>
<g >
</g>
<g >
</g>
<g >
</g>
<g >
</g>
<g >
</g>
<g >
</g>
<g >
</g>
<g >
</g>
</g>
<g style="fill:#000000; fill-opacity:0.0; 
stroke:#000000; stroke-width:0.1500; stroke-opacity:1; 
stroke-linecap:round; stroke-linejoin:round;">
<g >
</g>
<g >
</g>
<g >
</g>
<g >
</g>
<g >
</g>
<g >
</g>
<g >
</g>
<g >
</g>
<g >
</g>
<g >
</g>
<g >
</g>
<g >
</g>
<g >
</g>
</g>
<g style="fill:#000000; fill-opacity:0.0; 
stroke:#000000; stroke-width:0.1500; stroke-opacity:1; 
stroke-linecap:round; stroke-linejoin:round;">
<g >
</g>
<g >
</g>
<g >
</g>
<g >
</g>
<g >
</g>
<g >
</g>
<g >
</g>
<g >
</g>
<g >
</g>
<g >
</g>
<g >
</g>
<g >
</g>
<g >
</g>
</g>
<g style="fill:#000000; fill-opacity:0.0; 
stroke:#000000; stroke-width:0.1500; stroke-opacity:1; 
stroke-linecap:round; stroke-linejoin:round;">
<g >
</g>
<g >
</g>
<g >
</g>
<g >
</g>
<g >
</g>
<g >
</g>
<g >
</g>
<g >
</g>
<g >
</g>
<g >
</g>
<g >
</g>
<g >
</g>
<g >
</g>
</g>
<g style="fill:#000000; fill-opacity:0.0; 
stroke:#000000; stroke-width:0.1500; stroke-opacity:1; 
stroke-linecap:round; stroke-linejoin:round;">
<g >
</g>
<g >
</g>
<g >
</g>
<g >
</g>
<g >
</g>
<g >
</g>
<g >
</g>
<g >
</g>
<g >
</g>
<g >
</g>
<g >
</g>
<g >
</g>
<g >
</g>
</g> 
</svg>
